<?xml version="1.0" encoding="UTF-8" standalone="no"?>
<!-- Created with Inkscape (http://www.inkscape.org/) -->

<svg
   version="1.1"
   id="svg434"
   width="8.5in"
   height="11in"
   viewBox="0 0 816 1056"
   sodipodi:docname="CheatCodes.svg"
   inkscape:version="1.3 (0e150ed6c4, 2023-07-21)"
   xmlns:inkscape="http://www.inkscape.org/namespaces/inkscape"
   xmlns:sodipodi="http://sodipodi.sourceforge.net/DTD/sodipodi-0.dtd"
   xmlns="http://www.w3.org/2000/svg"
   xmlns:svg="http://www.w3.org/2000/svg">
  <defs
     id="defs438">
    <clipPath
       clipPathUnits="userSpaceOnUse"
       id="clipPath450">
      <path
         d="M 54,612 H 306 V 756 H 54 Z"
         id="path448" />
    </clipPath>
    <clipPath
       clipPathUnits="userSpaceOnUse"
       id="clipPath460">
      <path
         d="M 306,612 H 558 V 756 H 306 Z"
         id="path458" />
    </clipPath>
    <clipPath
       clipPathUnits="userSpaceOnUse"
       id="clipPath470">
      <path
         d="M 54,468 H 306 V 612 H 54 Z"
         id="path468" />
    </clipPath>
    <clipPath
       clipPathUnits="userSpaceOnUse"
       id="clipPath480">
      <path
         d="M 306,468 H 558 V 612 H 306 Z"
         id="path478" />
    </clipPath>
    <clipPath
       clipPathUnits="userSpaceOnUse"
       id="clipPath490">
      <path
         d="M 54,324 H 306 V 468 H 54 Z"
         id="path488" />
    </clipPath>
    <clipPath
       clipPathUnits="userSpaceOnUse"
       id="clipPath500">
      <path
         d="M 306,324 H 558 V 468 H 306 Z"
         id="path498" />
    </clipPath>
    <clipPath
       clipPathUnits="userSpaceOnUse"
       id="clipPath510">
      <path
         d="M 54,180 H 306 V 324 H 54 Z"
         id="path508" />
    </clipPath>
    <clipPath
       clipPathUnits="userSpaceOnUse"
       id="clipPath520">
      <path
         d="M 306,180 H 558 V 324 H 306 Z"
         id="path518" />
    </clipPath>
    <clipPath
       clipPathUnits="userSpaceOnUse"
       id="clipPath530">
      <path
         d="M 54,36 H 306 V 180 H 54 Z"
         id="path528" />
    </clipPath>
    <clipPath
       clipPathUnits="userSpaceOnUse"
       id="clipPath540">
      <path
         d="M 306,36 H 558 V 180 H 306 Z"
         id="path538" />
    </clipPath>
  </defs>
  <sodipodi:namedview
     id="namedview436"
     pagecolor="#ffffff"
     bordercolor="#000000"
     borderopacity="0.25"
     inkscape:showpageshadow="2"
     inkscape:pageopacity="0.0"
     inkscape:pagecheckerboard="0"
     inkscape:deskcolor="#d1d1d1"
     showgrid="false"
     inkscape:zoom="0.84011382"
     inkscape:cx="263.65475"
     inkscape:cy="752.87418"
     inkscape:window-width="1920"
     inkscape:window-height="1027"
     inkscape:window-x="-8"
     inkscape:window-y="-8"
     inkscape:window-maximized="1"
     inkscape:current-layer="g442"
     showguides="true"
     inkscape:document-units="in">
    <inkscape:page
       x="0"
       y="0"
       id="page440"
       width="816"
       height="1056"
       margin="0"
       bleed="0" />
    <sodipodi:guide
       position="81.6,929.99998"
       orientation="-1,0"
       id="guide4367"
       inkscape:locked="false"
       inkscape:label=""
       inkscape:color="rgb(0,134,229)" />
    <sodipodi:guide
       position="398.4,911.99998"
       orientation="-1,0"
       id="guide4371"
       inkscape:locked="false"
       inkscape:label=""
       inkscape:color="rgb(0,134,229)" />
    <sodipodi:guide
       position="158.66669,998.4"
       orientation="0,1"
       id="guide4375"
       inkscape:locked="false"
       inkscape:label=""
       inkscape:color="rgb(0,134,229)" />
    <sodipodi:guide
       position="417.6,911.99998"
       orientation="-1,0"
       id="guide4540"
       inkscape:locked="false"
       inkscape:label=""
       inkscape:color="rgb(0,134,229)" />
    <sodipodi:guide
       position="735.06624,866.22219"
       orientation="-1,0"
       id="guide4542"
       inkscape:locked="false"
       inkscape:label=""
       inkscape:color="rgb(0,134,229)" />
    <sodipodi:guide
       position="157.11114,805.73376"
       orientation="0,1"
       id="guide4544"
       inkscape:locked="false"
       inkscape:label=""
       inkscape:color="rgb(0,134,229)" />
    <sodipodi:guide
       position="188.22225,615.06624"
       orientation="0,1"
       id="guide4546"
       inkscape:locked="false"
       inkscape:label=""
       inkscape:color="rgb(0,134,229)" />
    <sodipodi:guide
       position="216.22226,423.06624"
       orientation="0,1"
       id="guide4548"
       inkscape:locked="false"
       inkscape:label=""
       inkscape:color="rgb(0,134,229)" />
    <sodipodi:guide
       position="218.55559,229.73376"
       orientation="0,1"
       id="guide4550"
       inkscape:locked="false"
       inkscape:label=""
       inkscape:color="rgb(0,134,229)" />
  </sodipodi:namedview>
  <g
     inkscape:groupmode="layer"
     id="layer1"
     inkscape:label="Guides"
     style="display:inline">
    <g
       id="g5047"
       transform="matrix(1.3333333,0,0,-1.3333333,0,1056)">
      <g
         id="g444"
         transform="translate(1.044e-5)">
        <g
           id="g446"
           clip-path="url(#clipPath450)">
          <path
             d="M 54,612 H 306 V 756 H 54 Z"
             style="fill:none;stroke:#060706;stroke-width:1;stroke-linecap:butt;stroke-linejoin:miter;stroke-miterlimit:10;stroke-dasharray:none;stroke-opacity:1"
             id="path452" />
        </g>
      </g>
      <g
         id="g454">
        <g
           id="g456"
           clip-path="url(#clipPath460)">
          <path
             d="M 306,612 H 558 V 756 H 306 Z"
             style="fill:none;stroke:#060706;stroke-width:1;stroke-linecap:butt;stroke-linejoin:miter;stroke-miterlimit:10;stroke-dasharray:none;stroke-opacity:1"
             id="path462" />
        </g>
      </g>
      <g
         id="g464">
        <g
           id="g466"
           clip-path="url(#clipPath470)">
          <path
             d="M 54,468 H 306 V 612 H 54 Z"
             style="fill:none;stroke:#060706;stroke-width:1;stroke-linecap:butt;stroke-linejoin:miter;stroke-miterlimit:10;stroke-dasharray:none;stroke-opacity:1"
             id="path472" />
        </g>
      </g>
      <g
         id="g474">
        <g
           id="g476"
           clip-path="url(#clipPath480)">
          <path
             d="M 306,468 H 558 V 612 H 306 Z"
             style="fill:none;stroke:#060706;stroke-width:1;stroke-linecap:butt;stroke-linejoin:miter;stroke-miterlimit:10;stroke-dasharray:none;stroke-opacity:1"
             id="path482" />
        </g>
      </g>
      <g
         id="g484">
        <g
           id="g486"
           clip-path="url(#clipPath490)">
          <path
             d="M 54,324 H 306 V 468 H 54 Z"
             style="fill:none;stroke:#060706;stroke-width:1;stroke-linecap:butt;stroke-linejoin:miter;stroke-miterlimit:10;stroke-dasharray:none;stroke-opacity:1"
             id="path492" />
        </g>
      </g>
      <g
         id="g494">
        <g
           id="g496"
           clip-path="url(#clipPath500)">
          <path
             d="M 306,324 H 558 V 468 H 306 Z"
             style="fill:none;stroke:#060706;stroke-width:1;stroke-linecap:butt;stroke-linejoin:miter;stroke-miterlimit:10;stroke-dasharray:none;stroke-opacity:1"
             id="path502" />
        </g>
      </g>
      <g
         id="g504">
        <g
           id="g506"
           clip-path="url(#clipPath510)">
          <path
             d="M 54,180 H 306 V 324 H 54 Z"
             style="fill:none;stroke:#060706;stroke-width:1;stroke-linecap:butt;stroke-linejoin:miter;stroke-miterlimit:10;stroke-dasharray:none;stroke-opacity:1"
             id="path512" />
        </g>
      </g>
      <g
         id="g514">
        <g
           id="g516"
           clip-path="url(#clipPath520)">
          <path
             d="M 306,180 H 558 V 324 H 306 Z"
             style="fill:none;stroke:#060706;stroke-width:1;stroke-linecap:butt;stroke-linejoin:miter;stroke-miterlimit:10;stroke-dasharray:none;stroke-opacity:1"
             id="path522" />
        </g>
      </g>
      <g
         id="g524">
        <g
           id="g526"
           clip-path="url(#clipPath530)">
          <path
             d="M 54,36 H 306 V 180 H 54 Z"
             style="fill:none;stroke:#060706;stroke-width:1;stroke-linecap:butt;stroke-linejoin:miter;stroke-miterlimit:10;stroke-dasharray:none;stroke-opacity:1"
             id="path532" />
        </g>
      </g>
      <g
         id="g534">
        <g
           id="g536"
           clip-path="url(#clipPath540)">
          <path
             d="M 306,36 H 558 V 180 H 306 Z"
             style="fill:none;stroke:#060706;stroke-width:1;stroke-linecap:butt;stroke-linejoin:miter;stroke-miterlimit:10;stroke-dasharray:none;stroke-opacity:1"
             id="path542" />
        </g>
      </g>
    </g>
  </g>
  <g
     id="g442"
     inkscape:groupmode="layer"
     inkscape:label="Page 1"
     transform="matrix(1.3333333,0,0,-1.3333333,0,1056)">
    <path
       style="fill:#0000ff;fill-opacity:1;stroke-width:0.495224"
       d="m -192.83005,738.59937 c -3.46394,0.57889 -4.58134,1.1803 -7.83506,4.21705 -5.61689,5.24231 -8.41284,13.51903 -8.37156,24.78191 0.0315,8.54413 1.84085,15.76305 6.07504,24.23533 3.23552,6.47405 8.71469,10.60331 14.05527,10.59247 2.1837,-0.006 2.60798,-0.19842 4.20168,-1.92218 3.06613,-3.31605 6.18592,-12.36065 8.15361,-23.63824 0.59788,-3.42673 0.86196,-7.60467 0.86035,-13.61092 -0.002,-7.5777 -0.1446,-9.15263 -1.13429,-12.53619 -2.06922,-7.07419 -4.64336,-10.71638 -8.19622,-11.59718 -3.18399,-0.78933 -5.34489,-0.93379 -7.80883,-0.52207 z"
       id="path1359" />
    <path
       style="fill:#00ff00;fill-opacity:1;stroke-width:0.495224"
       d="m -159.29454,738.11446 c -1.30016,0.3695 -2.85798,1.14007 -3.46209,1.71178 -2.03584,1.92802 -4.25769,6.28611 -5.36547,10.52408 -3.58241,13.70529 1.89274,43.81518 9.12138,50.16174 0.57696,0.50657 2.05662,1.03047 3.28815,1.16426 4.83681,0.52551 11.19397,-4.39291 14.34198,-11.09614 2.39904,-5.10844 4.50126,-11.64271 5.1792,-16.09835 0.70551,-4.63699 0.24396,-15.41161 -0.84638,-19.75771 -3.08049,-12.27886 -12.57238,-19.36244 -22.25681,-16.60976 z"
       id="path1357" />
    <path
       style="fill:#ff0000;fill-opacity:1;stroke-width:0.495224"
       d="m -128.91497,705.57237 c -2.79249,0.48701 -6.45662,2.85964 -8.41523,5.44898 -2.6453,3.49729 -3.27112,6.62959 -2.88386,14.43414 0.5711,11.5103 1.24439,17.47089 2.30764,20.42987 2.90147,8.07463 10.44591,14.09206 15.82207,12.61964 4.25332,-1.16493 10.18909,-10.12337 12.451,-18.79148 1.86713,-7.15532 0.8953,-17.67829 -2.26314,-24.50469 -1.48898,-3.21819 -5.78281,-7.8431 -8.14137,-8.7691 -2.40614,-0.9447 -6.26922,-1.32215 -8.87711,-0.86736 z"
       id="path1355" />
    <path
       style="fill:#ffff00;fill-opacity:1;stroke-width:0.495224"
       d="m -223.19972,706.1507 c -7.38753,2.12024 -12.40091,11.00195 -13.09291,23.19541 -0.56605,9.97388 3.71487,21.41549 10.18079,27.21 3.03627,2.72093 4.55797,3.16136 7.69952,2.22822 3.40189,-1.01047 5.72357,-2.99061 8.56912,-7.30849 3.12836,-4.74703 3.92694,-7.8011 4.61548,-17.65186 1.09275,-15.63339 0.39199,-19.94991 -3.89473,-23.99071 -3.85788,-3.63658 -9.28806,-5.0571 -14.07727,-3.68257 z"
       id="path1353" />
    <g
       id="g4886">
      <text
         xml:space="preserve"
         style="font-style:normal;font-variant:normal;font-weight:normal;font-stretch:normal;font-size:32px;font-family:Oxanium;-inkscape-font-specification:'Oxanium, @wght=700';font-variant-ligatures:normal;font-variant-caps:normal;font-variant-numeric:normal;font-variant-east-asian:normal;font-variation-settings:'wght' 700;text-align:center;text-anchor:middle;fill:#000000;fill-opacity:1;stroke:none;stroke-width:4.8189;stroke-linecap:round"
         x="179.48798"
         y="-718.91998"
         id="text757"
         transform="scale(1,-1)"><tspan
           sodipodi:role="line"
           id="tspan755"
           style="font-style:normal;font-variant:normal;font-weight:normal;font-stretch:normal;font-size:32px;font-family:Oxanium;-inkscape-font-specification:'Oxanium, @wght=700';font-variant-ligatures:normal;font-variant-caps:normal;font-variant-numeric:normal;font-variant-east-asian:normal;font-variation-settings:'wght' 700;fill:#000000;fill-opacity:1;stroke:none;stroke-width:4.8189"
           x="179.48798"
           y="-718.91998">DOG MODE</tspan></text>
      <g
         id="g4877">
        <path
           style="fill:#0000ff;fill-opacity:1;stroke-width:0.495224"
           d="m 144.86482,637.19876 c -3.46394,0.57889 -4.58134,1.1803 -7.83506,4.21705 -5.61689,5.24231 -8.41284,13.51903 -8.37156,24.78191 0.0315,8.54413 1.84085,15.76305 6.07504,24.23533 3.23552,6.47405 8.71469,10.60331 14.05527,10.59247 2.1837,-0.006 2.60798,-0.19842 4.20168,-1.92218 3.06613,-3.31605 6.18592,-12.36065 8.15361,-23.63824 0.59788,-3.42673 0.86196,-7.60467 0.86035,-13.61092 -0.002,-7.5777 -0.1446,-9.15263 -1.13429,-12.53619 -2.06922,-7.07419 -4.64336,-10.71638 -8.19622,-11.59718 -3.18399,-0.78933 -5.34489,-0.93379 -7.80883,-0.52207 z"
           id="path1359-4" />
        <path
           style="fill:#00ff00;fill-opacity:1;stroke-width:0.495224"
           d="m 207.84406,637.49546 c -1.30016,0.3695 -2.85798,1.14007 -3.46209,1.71178 -2.03584,1.92802 -4.25769,6.28611 -5.36547,10.52408 -3.58241,13.70529 1.89274,43.81518 9.12138,50.16174 0.57696,0.50657 2.05662,1.03047 3.28815,1.16426 4.83681,0.52551 11.19397,-4.39291 14.34198,-11.09614 2.39904,-5.10844 4.50126,-11.64271 5.1792,-16.09835 0.70551,-4.63699 0.24396,-15.41161 -0.84638,-19.75771 -3.08049,-12.27886 -12.57238,-19.36244 -22.25681,-16.60976 z"
           id="path1357-9" />
        <path
           style="fill:#ff0000;fill-opacity:1;stroke-width:0.495224"
           d="m 278.57278,642.5185 c -2.79249,0.48701 -6.45662,2.85964 -8.41523,5.44898 -2.6453,3.49729 -3.27112,6.62959 -2.88386,14.43414 0.5711,11.5103 1.24439,17.47089 2.30764,20.42987 2.90147,8.07463 10.44591,14.09206 15.82207,12.61964 4.25332,-1.16493 10.18909,-10.12337 12.451,-18.79148 1.86713,-7.15532 0.8953,-17.67829 -2.26314,-24.50469 -1.48898,-3.21819 -5.78281,-7.8431 -8.14137,-8.7691 -2.40614,-0.9447 -6.26922,-1.32215 -8.87711,-0.86736 z"
           id="path1355-3" />
        <path
           style="fill:#ffff00;fill-opacity:1;stroke-width:0.495224"
           d="m 74.343034,642.71874 c -7.38753,2.12024 -12.40091,11.00195 -13.09291,23.19541 -0.56605,9.97388 3.71487,21.41549 10.18079,27.21 3.03627,2.72093 4.55797,3.16136 7.69952,2.22822 3.40189,-1.01047 5.72357,-2.99061 8.56912,-7.30849 3.128361,-4.74703 3.926941,-7.8011 4.615481,-17.65186 1.09275,-15.63339 0.39199,-19.94991 -3.894731,-23.99071 -3.85788,-3.63658 -9.28806,-5.0571 -14.07727,-3.68257 z"
           id="path1353-0" />
      </g>
    </g>
    <g
       id="g4915">
      <text
         xml:space="preserve"
         style="font-style:normal;font-variant:normal;font-weight:normal;font-stretch:normal;font-size:32px;font-family:Oxanium;-inkscape-font-specification:'Oxanium, @wght=700';font-variant-ligatures:normal;font-variant-caps:normal;font-variant-numeric:normal;font-variant-east-asian:normal;font-variation-settings:'wght' 700;text-align:center;text-anchor:middle;fill:#000000;fill-opacity:1;stroke:none;stroke-width:4.8189;stroke-linecap:round"
         x="179.48799"
         y="-582.22034"
         id="text757-2"
         transform="scale(1,-1)"><tspan
           sodipodi:role="line"
           id="tspan755-8"
           style="font-style:normal;font-variant:normal;font-weight:normal;font-stretch:normal;font-size:32px;font-family:Oxanium;-inkscape-font-specification:'Oxanium, @wght=700';font-variant-ligatures:normal;font-variant-caps:normal;font-variant-numeric:normal;font-variant-east-asian:normal;font-variation-settings:'wght' 700;fill:#000000;fill-opacity:1;stroke:none;stroke-width:4.8189"
           x="179.48799"
           y="-582.22034">BLUE MODE</tspan></text>
      <g
         id="g4859">
        <path
           style="fill:#0000ff;fill-opacity:1;stroke-width:0.495224"
           d="m 281.66067,500.49907 c -3.46394,0.57889 -4.58134,1.1803 -7.83506,4.21705 -5.61689,5.24231 -8.41284,13.51903 -8.37156,24.78191 0.0315,8.54413 1.84085,15.76305 6.07504,24.23533 3.23552,6.47405 8.71469,10.60331 14.05527,10.59247 2.1837,-0.006 2.60798,-0.19842 4.20168,-1.92218 3.06613,-3.31605 6.18592,-12.36065 8.15361,-23.63824 0.59788,-3.42673 0.86196,-7.60467 0.86035,-13.61092 -0.002,-7.5777 -0.1446,-9.15263 -1.13429,-12.53619 -2.06922,-7.07419 -4.64336,-10.71638 -8.19622,-11.59718 -3.18399,-0.78933 -5.34489,-0.93379 -7.80883,-0.52207 z"
           id="path4690" />
        <path
           style="fill:#0000ff;fill-opacity:1;stroke-width:0.495224"
           d="m 77.40707,500.49907 c -3.46394,0.57889 -4.58134,1.1803 -7.83506,4.21705 -5.61689,5.24231 -8.41284,13.51903 -8.37156,24.78191 0.0315,8.54413 1.84085,15.76305 6.07504,24.23533 3.23552,6.47405 8.71469,10.60331 14.05527,10.59247 2.1837,-0.006 2.60798,-0.19842 4.20168,-1.92218 3.06613,-3.31605 6.18592,-12.36065 8.15361,-23.63824 0.59788,-3.42673 0.86196,-7.60467 0.86035,-13.61092 -0.002,-7.5777 -0.1446,-9.15263 -1.13429,-12.53619 -2.06922,-7.07419 -4.64336,-10.71638 -8.19622,-11.59718 -3.18399,-0.78933 -5.34489,-0.93379 -7.80883,-0.52207 z"
           id="path4688" />
        <path
           style="fill:#0000ff;fill-opacity:1;stroke-width:0.495224"
           d="m 159.10851,500.49907 c -3.46394,0.57889 -4.58134,1.1803 -7.83506,4.21705 -5.61689,5.24231 -8.41284,13.51903 -8.37156,24.78191 0.0315,8.54413 1.84085,15.76305 6.07504,24.23533 3.23552,6.47405 8.71469,10.60331 14.05527,10.59247 2.1837,-0.006 2.60798,-0.19842 4.20168,-1.92218 3.06613,-3.31605 6.18592,-12.36065 8.15361,-23.63824 0.59788,-3.42673 0.86196,-7.60467 0.86035,-13.61092 -0.002,-7.5777 -0.1446,-9.15263 -1.13429,-12.53619 -2.06922,-7.07419 -4.64336,-10.71638 -8.19622,-11.59718 -3.18399,-0.78933 -5.34489,-0.93379 -7.80883,-0.52207 z"
           id="path1359-4-4" />
        <path
           style="fill:#0000ff;fill-opacity:1;stroke-width:0.495224"
           d="m 240.80995,500.49907 c -3.46394,0.57889 -4.58134,1.1803 -7.83506,4.21705 -5.61689,5.24231 -8.41284,13.51903 -8.37156,24.78191 0.0315,8.54413 1.84085,15.76305 6.07504,24.23533 3.23552,6.47405 8.71469,10.60331 14.05527,10.59247 2.1837,-0.006 2.60798,-0.19842 4.20168,-1.92218 3.06613,-3.31605 6.18592,-12.36065 8.15361,-23.63824 0.59788,-3.42673 0.86196,-7.60467 0.86035,-13.61092 -0.002,-7.5777 -0.1446,-9.15263 -1.13429,-12.53619 -2.06922,-7.07419 -4.64336,-10.71638 -8.19622,-11.59718 -3.18399,-0.78933 -5.34489,-0.93379 -7.80883,-0.52207 z"
           id="path4692" />
        <path
           style="fill:#0000ff;fill-opacity:1;stroke-width:0.495224"
           d="m 199.95923,500.49907 c -3.46394,0.57889 -4.58134,1.1803 -7.83506,4.21705 -5.61689,5.24231 -8.41284,13.51903 -8.37156,24.78191 0.0315,8.54413 1.84085,15.76305 6.07504,24.23533 3.23552,6.47405 8.71469,10.60331 14.05527,10.59247 2.1837,-0.006 2.60798,-0.19842 4.20168,-1.92218 3.06613,-3.31605 6.18592,-12.36065 8.15361,-23.63824 0.59788,-3.42673 0.86196,-7.60467 0.86035,-13.61092 -0.002,-7.5777 -0.1446,-9.15263 -1.13429,-12.53619 -2.06922,-7.07419 -4.64336,-10.71638 -8.19622,-11.59718 -3.18399,-0.78933 -5.34489,-0.93379 -7.80883,-0.52207 z"
           id="path4694" />
        <path
           style="fill:#0000ff;fill-opacity:1;stroke-width:0.495224"
           d="m 118.25779,500.49907 c -3.46394,0.57889 -4.58134,1.1803 -7.83506,4.21705 -5.61689,5.24231 -8.41284,13.51903 -8.37156,24.78191 0.0315,8.54413 1.84085,15.76305 6.07504,24.23533 3.23552,6.47405 8.71469,10.60331 14.05527,10.59247 2.1837,-0.006 2.60798,-0.19842 4.20168,-1.92218 3.06613,-3.31605 6.18592,-12.36065 8.15361,-23.63824 0.59788,-3.42673 0.86196,-7.60467 0.86035,-13.61092 -0.002,-7.5777 -0.1446,-9.15263 -1.13429,-12.53619 -2.06922,-7.07419 -4.64336,-10.71638 -8.19622,-11.59718 -3.18399,-0.78933 -5.34489,-0.93379 -7.80883,-0.52207 z"
           id="path4696" />
      </g>
    </g>
    <path
       style="fill:#000000;stroke-width:0.495224"
       d="m -210.70056,666.48955 c -3.34632,1.63294 -6.01325,4.44227 -7.76141,8.17565 -1.31718,2.813 -1.43772,3.4976 -1.26522,7.18592 0.17275,3.6965 0.4124,4.5185 2.56811,8.81359 1.3076,2.60525 3.13841,5.61869 4.06852,6.69649 1.75134,2.02947 12.88438,10.85944 16.70851,13.25207 3.18437,1.99237 7.03124,5.74384 11.54331,11.2571 4.17258,5.09842 6.83466,7.17563 10.48608,8.18215 4.76471,1.31342 10.41474,-1.91847 15.47097,-8.84955 3.38637,-4.64208 7.35764,-8.29851 14.87883,-13.69939 10.6499,-7.64754 15.80098,-13.56018 18.34775,-21.06033 1.96535,-5.78796 0.75305,-11.98905 -3.17795,-16.2556 -3.50025,-3.79908 -6.63827,-5.15113 -11.89159,-5.12361 -3.47333,0.0168 -4.88853,0.30348 -9.06123,1.82662 -8.7177,3.18222 -12.66409,4.2059 -18.51871,4.80383 -5.20549,0.53161 -6.28241,0.48883 -11.85107,-0.47077 -4.0084,-0.69074 -8.20612,-1.83948 -12.14644,-3.32407 -5.40427,-2.03613 -6.52869,-2.2864 -10.97419,-2.44235 -4.45077,-0.15614 -5.20355,-0.0514 -7.42427,1.03225 z"
       id="path863" />
    <g
       id="g4895">
      <g
         id="g4871">
        <path
           style="fill:#0000ff;fill-opacity:1;stroke-width:0.495224"
           d="m 466.84113,637.19876 c -3.46394,0.57889 -4.58134,1.1803 -7.83506,4.21705 -5.61689,5.24231 -8.41284,13.51903 -8.37156,24.78191 0.0315,8.54413 1.84085,15.76305 6.07504,24.23533 3.23552,6.47405 8.71469,10.60331 14.05527,10.59247 2.1837,-0.006 2.60798,-0.19842 4.20168,-1.92218 3.06613,-3.31605 6.18592,-12.36065 8.15361,-23.63824 0.59788,-3.42673 0.86196,-7.60467 0.86035,-13.61092 -0.002,-7.5777 -0.1446,-9.15263 -1.13429,-12.53619 -2.06922,-7.07419 -4.64336,-10.71638 -8.19622,-11.59718 -3.18399,-0.78933 -5.34489,-0.93379 -7.80883,-0.52207 z"
           id="path1359-4-3" />
        <path
           style="fill:#00ff00;fill-opacity:1;stroke-width:0.495224"
           d="m 390.99017,637.49546 c -1.30016,0.3695 -2.85798,1.14007 -3.46209,1.71178 -2.03584,1.92802 -4.25769,6.28611 -5.36547,10.52408 -3.58241,13.70529 1.89274,43.81518 9.12138,50.16174 0.57696,0.50657 2.05662,1.03047 3.28815,1.16426 4.83681,0.52551 11.19397,-4.39291 14.34198,-11.09614 2.39904,-5.10844 4.50126,-11.64271 5.1792,-16.09835 0.70551,-4.63699 0.24396,-15.41161 -0.84638,-19.75771 -3.08049,-12.27886 -12.57238,-19.36244 -22.25681,-16.60976 z"
           id="path1357-9-3" />
        <path
           style="fill:#ff0000;fill-opacity:1;stroke-width:0.495224"
           d="m 324.60394,642.5185 c -2.79249,0.48701 -6.45662,2.85964 -8.41523,5.44898 -2.6453,3.49729 -3.27112,6.62959 -2.88386,14.43414 0.5711,11.5103 1.24439,17.47089 2.30764,20.42987 2.90147,8.07463 10.44591,14.09206 15.82207,12.61964 4.25332,-1.16493 10.18909,-10.12337 12.451,-18.79148 1.86713,-7.15532 0.8953,-17.67829 -2.26314,-24.50469 -1.48898,-3.21819 -5.78281,-7.8431 -8.14137,-8.7691 -2.40614,-0.9447 -6.26922,-1.32215 -8.87711,-0.86736 z"
           id="path1355-3-5" />
        <path
           style="fill:#ffff00;fill-opacity:1;stroke-width:0.495224"
           d="m 533.32769,642.71874 c -7.38753,2.12024 -12.40091,11.00195 -13.09291,23.19541 -0.56605,9.97388 3.71487,21.41549 10.18079,27.21 3.03627,2.72093 4.55797,3.16136 7.69952,2.22822 3.40189,-1.01047 5.72357,-2.99061 8.56912,-7.30849 3.12836,-4.74703 3.92694,-7.8011 4.61548,-17.65186 1.09275,-15.63339 0.39199,-19.94991 -3.89473,-23.99071 -3.85788,-3.63658 -9.28806,-5.0571 -14.07727,-3.68257 z"
           id="path1353-0-0" />
      </g>
      <text
         xml:space="preserve"
         style="font-style:normal;font-variant:normal;font-weight:normal;font-stretch:normal;font-size:32px;font-family:Oxanium;-inkscape-font-specification:'Oxanium, @wght=700';font-variant-ligatures:normal;font-variant-caps:normal;font-variant-numeric:normal;font-variant-east-asian:normal;font-variation-settings:'wght' 700;text-align:center;text-anchor:middle;fill:#000000;fill-opacity:1;stroke:none;stroke-width:4.8189;stroke-linecap:round"
         x="431.48798"
         y="-718.91998"
         id="text1315"
         transform="scale(1,-1)"><tspan
           sodipodi:role="line"
           id="tspan1313"
           style="font-style:normal;font-variant:normal;font-weight:normal;font-stretch:normal;font-size:32px;font-family:Oxanium;-inkscape-font-specification:'Oxanium, @wght=700';font-variant-ligatures:normal;font-variant-caps:normal;font-variant-numeric:normal;font-variant-east-asian:normal;font-variation-settings:'wght' 700;fill:#000000;fill-opacity:1;stroke:none;stroke-width:4.8189"
           x="431.48798"
           y="-718.91998">CAT MODE</tspan></text>
    </g>
    <g
       id="g4904">
      <text
         xml:space="preserve"
         style="font-style:normal;font-variant:normal;font-weight:normal;font-stretch:normal;font-size:25.7874px;font-family:Oxanium;-inkscape-font-specification:'Oxanium, @wght=700';font-variant-ligatures:normal;font-variant-caps:normal;font-variant-numeric:normal;font-variant-east-asian:normal;font-variation-settings:'wght' 700;text-align:center;text-anchor:middle;fill:#000000;fill-opacity:1;stroke:none;stroke-width:4.4381;stroke-linecap:round"
         x="431.51239"
         y="-586.50702"
         id="text4704"
         transform="scale(1,-1)"><tspan
           sodipodi:role="line"
           id="tspan4702"
           style="font-style:normal;font-variant:normal;font-weight:normal;font-stretch:normal;font-size:25.7874px;font-family:Oxanium;-inkscape-font-specification:'Oxanium, @wght=700';font-variant-ligatures:normal;font-variant-caps:normal;font-variant-numeric:normal;font-variant-east-asian:normal;font-variation-settings:'wght' 700;fill:#000000;fill-opacity:1;stroke:none;stroke-width:4.4381"
           x="431.51239"
           y="-586.50702">CELERY MAN MODE</tspan></text>
      <g
         id="g4865">
        <path
           style="fill:#00ff00;fill-opacity:1;stroke-width:0.495224"
           d="m 390.20018,500.79576 c -1.30016,0.3695 -2.85798,1.14007 -3.46209,1.71178 -2.03584,1.92802 -4.25769,6.28611 -5.36547,10.52408 -3.58241,13.70529 1.89274,43.81518 9.12138,50.16174 0.57696,0.50657 2.05662,1.03047 3.28815,1.16426 4.83681,0.52551 11.19397,-4.39291 14.34198,-11.09614 2.39904,-5.10844 4.50126,-11.64271 5.1792,-16.09835 0.70551,-4.63699 0.24396,-15.41161 -0.84638,-19.75771 -3.08049,-12.27886 -12.57238,-19.36244 -22.25681,-16.60976 z"
           id="path4841" />
        <path
           style="fill:#0000ff;fill-opacity:1;stroke-width:0.495224"
           d="m 533.66067,500.49906 c -3.46394,0.57889 -4.58134,1.1803 -7.83506,4.21705 -5.61689,5.24231 -8.41284,13.51903 -8.37156,24.78191 0.0315,8.54413 1.84085,15.76305 6.07504,24.23533 3.23552,6.47405 8.71469,10.60331 14.05527,10.59247 2.1837,-0.006 2.60798,-0.19842 4.20168,-1.92218 3.06613,-3.31605 6.18592,-12.36065 8.15361,-23.63824 0.59788,-3.42673 0.86196,-7.60467 0.86035,-13.61092 -0.002,-7.5777 -0.1446,-9.15263 -1.13429,-12.53619 -2.06922,-7.07419 -4.64336,-10.71638 -8.19622,-11.59718 -3.18399,-0.78933 -5.34489,-0.93379 -7.80883,-0.52207 z"
           id="path4698" />
        <path
           style="fill:#0000ff;fill-opacity:1;stroke-width:0.495224"
           d="m 465.0806,500.49906 c -3.46394,0.57889 -4.58134,1.1803 -7.83506,4.21705 -5.61689,5.24231 -8.41284,13.51903 -8.37156,24.78191 0.0315,8.54413 1.84085,15.76305 6.07504,24.23533 3.23552,6.47405 8.71469,10.60331 14.05527,10.59247 2.1837,-0.006 2.60798,-0.19842 4.20168,-1.92218 3.06613,-3.31605 6.18592,-12.36065 8.15361,-23.63824 0.59788,-3.42673 0.86196,-7.60467 0.86035,-13.61092 -0.002,-7.5777 -0.1446,-9.15263 -1.13429,-12.53619 -2.06922,-7.07419 -4.64336,-10.71638 -8.19622,-11.59718 -3.18399,-0.78933 -5.34489,-0.93379 -7.80883,-0.52207 z"
           id="path4710" />
        <path
           style="fill:#00ff00;fill-opacity:1;stroke-width:0.495224"
           d="m 321.57201,500.79576 c -1.30016,0.3695 -2.85798,1.14007 -3.46209,1.71178 -2.03584,1.92802 -4.25769,6.28611 -5.36547,10.52408 -3.58241,13.70529 1.89274,43.81518 9.12138,50.16174 0.57696,0.50657 2.05662,1.03047 3.28815,1.16426 4.83681,0.52551 11.19397,-4.39291 14.34198,-11.09614 2.39904,-5.10844 4.50126,-11.64271 5.1792,-16.09835 0.70551,-4.63699 0.24396,-15.41161 -0.84638,-19.75771 -3.08049,-12.27886 -12.57238,-19.36244 -22.25681,-16.60976 z"
           id="path4839" />
      </g>
    </g>
    <g
       id="g4931"
       transform="translate(0,-279.70029)">
      <text
         xml:space="preserve"
         style="font-style:normal;font-variant:normal;font-weight:normal;font-stretch:normal;font-size:32px;font-family:Oxanium;-inkscape-font-specification:'Oxanium, @wght=700';font-variant-ligatures:normal;font-variant-caps:normal;font-variant-numeric:normal;font-variant-east-asian:normal;font-variation-settings:'wght' 700;text-align:center;text-anchor:middle;fill:#000000;fill-opacity:1;stroke:none;stroke-width:4.8189;stroke-linecap:round"
         x="179.48798"
         y="-718.91998"
         id="text4919"
         transform="scale(1,-1)"><tspan
           sodipodi:role="line"
           id="tspan4917"
           style="font-style:normal;font-variant:normal;font-weight:normal;font-stretch:normal;font-size:32px;font-family:Oxanium;-inkscape-font-specification:'Oxanium, @wght=700';font-variant-ligatures:normal;font-variant-caps:normal;font-variant-numeric:normal;font-variant-east-asian:normal;font-variation-settings:'wght' 700;fill:#000000;fill-opacity:1;stroke:none;stroke-width:4.8189"
           x="179.48798"
           y="-718.91998">DOG MODE</tspan></text>
      <g
         id="g4929">
        <path
           style="fill:#0000ff;fill-opacity:1;stroke-width:0.495224"
           d="m 144.86482,637.19876 c -3.46394,0.57889 -4.58134,1.1803 -7.83506,4.21705 -5.61689,5.24231 -8.41284,13.51903 -8.37156,24.78191 0.0315,8.54413 1.84085,15.76305 6.07504,24.23533 3.23552,6.47405 8.71469,10.60331 14.05527,10.59247 2.1837,-0.006 2.60798,-0.19842 4.20168,-1.92218 3.06613,-3.31605 6.18592,-12.36065 8.15361,-23.63824 0.59788,-3.42673 0.86196,-7.60467 0.86035,-13.61092 -0.002,-7.5777 -0.1446,-9.15263 -1.13429,-12.53619 -2.06922,-7.07419 -4.64336,-10.71638 -8.19622,-11.59718 -3.18399,-0.78933 -5.34489,-0.93379 -7.80883,-0.52207 z"
           id="path4921" />
        <path
           style="fill:#00ff00;fill-opacity:1;stroke-width:0.495224"
           d="m 207.84406,637.49546 c -1.30016,0.3695 -2.85798,1.14007 -3.46209,1.71178 -2.03584,1.92802 -4.25769,6.28611 -5.36547,10.52408 -3.58241,13.70529 1.89274,43.81518 9.12138,50.16174 0.57696,0.50657 2.05662,1.03047 3.28815,1.16426 4.83681,0.52551 11.19397,-4.39291 14.34198,-11.09614 2.39904,-5.10844 4.50126,-11.64271 5.1792,-16.09835 0.70551,-4.63699 0.24396,-15.41161 -0.84638,-19.75771 -3.08049,-12.27886 -12.57238,-19.36244 -22.25681,-16.60976 z"
           id="path4923" />
        <path
           style="fill:#ff0000;fill-opacity:1;stroke-width:0.495224"
           d="m 278.57278,642.5185 c -2.79249,0.48701 -6.45662,2.85964 -8.41523,5.44898 -2.6453,3.49729 -3.27112,6.62959 -2.88386,14.43414 0.5711,11.5103 1.24439,17.47089 2.30764,20.42987 2.90147,8.07463 10.44591,14.09206 15.82207,12.61964 4.25332,-1.16493 10.18909,-10.12337 12.451,-18.79148 1.86713,-7.15532 0.8953,-17.67829 -2.26314,-24.50469 -1.48898,-3.21819 -5.78281,-7.8431 -8.14137,-8.7691 -2.40614,-0.9447 -6.26922,-1.32215 -8.87711,-0.86736 z"
           id="path4925" />
        <path
           style="fill:#ffff00;fill-opacity:1;stroke-width:0.495224"
           d="m 74.343034,642.71874 c -7.38753,2.12024 -12.40091,11.00195 -13.09291,23.19541 -0.56605,9.97388 3.71487,21.41549 10.18079,27.21 3.03627,2.72093 4.55797,3.16136 7.69952,2.22822 3.40189,-1.01047 5.72357,-2.99061 8.56912,-7.30849 3.128361,-4.74703 3.926941,-7.8011 4.615481,-17.65186 1.09275,-15.63339 0.39199,-19.94991 -3.894731,-23.99071 -3.85788,-3.63658 -9.28806,-5.0571 -14.07727,-3.68257 z"
           id="path4927" />
      </g>
    </g>
    <g
       id="g4951"
       transform="translate(1.9857583e-6,-287.00065)">
      <text
         xml:space="preserve"
         style="font-style:normal;font-variant:normal;font-weight:normal;font-stretch:normal;font-size:32px;font-family:Oxanium;-inkscape-font-specification:'Oxanium, @wght=700';font-variant-ligatures:normal;font-variant-caps:normal;font-variant-numeric:normal;font-variant-east-asian:normal;font-variation-settings:'wght' 700;text-align:center;text-anchor:middle;fill:#000000;fill-opacity:1;stroke:none;stroke-width:4.8189;stroke-linecap:round"
         x="179.48799"
         y="-582.22034"
         id="text4935"
         transform="scale(1,-1)"><tspan
           sodipodi:role="line"
           id="tspan4933"
           style="font-style:normal;font-variant:normal;font-weight:normal;font-stretch:normal;font-size:32px;font-family:Oxanium;-inkscape-font-specification:'Oxanium, @wght=700';font-variant-ligatures:normal;font-variant-caps:normal;font-variant-numeric:normal;font-variant-east-asian:normal;font-variation-settings:'wght' 700;fill:#000000;fill-opacity:1;stroke:none;stroke-width:4.8189"
           x="179.48799"
           y="-582.22034">BLUE MODE</tspan></text>
      <g
         id="g4949">
        <path
           style="fill:#0000ff;fill-opacity:1;stroke-width:0.495224"
           d="m 281.66067,500.49907 c -3.46394,0.57889 -4.58134,1.1803 -7.83506,4.21705 -5.61689,5.24231 -8.41284,13.51903 -8.37156,24.78191 0.0315,8.54413 1.84085,15.76305 6.07504,24.23533 3.23552,6.47405 8.71469,10.60331 14.05527,10.59247 2.1837,-0.006 2.60798,-0.19842 4.20168,-1.92218 3.06613,-3.31605 6.18592,-12.36065 8.15361,-23.63824 0.59788,-3.42673 0.86196,-7.60467 0.86035,-13.61092 -0.002,-7.5777 -0.1446,-9.15263 -1.13429,-12.53619 -2.06922,-7.07419 -4.64336,-10.71638 -8.19622,-11.59718 -3.18399,-0.78933 -5.34489,-0.93379 -7.80883,-0.52207 z"
           id="path4937" />
        <path
           style="fill:#0000ff;fill-opacity:1;stroke-width:0.495224"
           d="m 77.40707,500.49907 c -3.46394,0.57889 -4.58134,1.1803 -7.83506,4.21705 -5.61689,5.24231 -8.41284,13.51903 -8.37156,24.78191 0.0315,8.54413 1.84085,15.76305 6.07504,24.23533 3.23552,6.47405 8.71469,10.60331 14.05527,10.59247 2.1837,-0.006 2.60798,-0.19842 4.20168,-1.92218 3.06613,-3.31605 6.18592,-12.36065 8.15361,-23.63824 0.59788,-3.42673 0.86196,-7.60467 0.86035,-13.61092 -0.002,-7.5777 -0.1446,-9.15263 -1.13429,-12.53619 -2.06922,-7.07419 -4.64336,-10.71638 -8.19622,-11.59718 -3.18399,-0.78933 -5.34489,-0.93379 -7.80883,-0.52207 z"
           id="path4939" />
        <path
           style="fill:#0000ff;fill-opacity:1;stroke-width:0.495224"
           d="m 159.10851,500.49907 c -3.46394,0.57889 -4.58134,1.1803 -7.83506,4.21705 -5.61689,5.24231 -8.41284,13.51903 -8.37156,24.78191 0.0315,8.54413 1.84085,15.76305 6.07504,24.23533 3.23552,6.47405 8.71469,10.60331 14.05527,10.59247 2.1837,-0.006 2.60798,-0.19842 4.20168,-1.92218 3.06613,-3.31605 6.18592,-12.36065 8.15361,-23.63824 0.59788,-3.42673 0.86196,-7.60467 0.86035,-13.61092 -0.002,-7.5777 -0.1446,-9.15263 -1.13429,-12.53619 -2.06922,-7.07419 -4.64336,-10.71638 -8.19622,-11.59718 -3.18399,-0.78933 -5.34489,-0.93379 -7.80883,-0.52207 z"
           id="path4941" />
        <path
           style="fill:#0000ff;fill-opacity:1;stroke-width:0.495224"
           d="m 240.80995,500.49907 c -3.46394,0.57889 -4.58134,1.1803 -7.83506,4.21705 -5.61689,5.24231 -8.41284,13.51903 -8.37156,24.78191 0.0315,8.54413 1.84085,15.76305 6.07504,24.23533 3.23552,6.47405 8.71469,10.60331 14.05527,10.59247 2.1837,-0.006 2.60798,-0.19842 4.20168,-1.92218 3.06613,-3.31605 6.18592,-12.36065 8.15361,-23.63824 0.59788,-3.42673 0.86196,-7.60467 0.86035,-13.61092 -0.002,-7.5777 -0.1446,-9.15263 -1.13429,-12.53619 -2.06922,-7.07419 -4.64336,-10.71638 -8.19622,-11.59718 -3.18399,-0.78933 -5.34489,-0.93379 -7.80883,-0.52207 z"
           id="path4943" />
        <path
           style="fill:#0000ff;fill-opacity:1;stroke-width:0.495224"
           d="m 199.95923,500.49907 c -3.46394,0.57889 -4.58134,1.1803 -7.83506,4.21705 -5.61689,5.24231 -8.41284,13.51903 -8.37156,24.78191 0.0315,8.54413 1.84085,15.76305 6.07504,24.23533 3.23552,6.47405 8.71469,10.60331 14.05527,10.59247 2.1837,-0.006 2.60798,-0.19842 4.20168,-1.92218 3.06613,-3.31605 6.18592,-12.36065 8.15361,-23.63824 0.59788,-3.42673 0.86196,-7.60467 0.86035,-13.61092 -0.002,-7.5777 -0.1446,-9.15263 -1.13429,-12.53619 -2.06922,-7.07419 -4.64336,-10.71638 -8.19622,-11.59718 -3.18399,-0.78933 -5.34489,-0.93379 -7.80883,-0.52207 z"
           id="path4945" />
        <path
           style="fill:#0000ff;fill-opacity:1;stroke-width:0.495224"
           d="m 118.25779,500.49907 c -3.46394,0.57889 -4.58134,1.1803 -7.83506,4.21705 -5.61689,5.24231 -8.41284,13.51903 -8.37156,24.78191 0.0315,8.54413 1.84085,15.76305 6.07504,24.23533 3.23552,6.47405 8.71469,10.60331 14.05527,10.59247 2.1837,-0.006 2.60798,-0.19842 4.20168,-1.92218 3.06613,-3.31605 6.18592,-12.36065 8.15361,-23.63824 0.59788,-3.42673 0.86196,-7.60467 0.86035,-13.61092 -0.002,-7.5777 -0.1446,-9.15263 -1.13429,-12.53619 -2.06922,-7.07419 -4.64336,-10.71638 -8.19622,-11.59718 -3.18399,-0.78933 -5.34489,-0.93379 -7.80883,-0.52207 z"
           id="path4947" />
      </g>
    </g>
    <g
       id="g4967"
       transform="translate(0,-279.70029)">
      <g
         id="g4961">
        <path
           style="fill:#0000ff;fill-opacity:1;stroke-width:0.495224"
           d="m 466.84113,637.19876 c -3.46394,0.57889 -4.58134,1.1803 -7.83506,4.21705 -5.61689,5.24231 -8.41284,13.51903 -8.37156,24.78191 0.0315,8.54413 1.84085,15.76305 6.07504,24.23533 3.23552,6.47405 8.71469,10.60331 14.05527,10.59247 2.1837,-0.006 2.60798,-0.19842 4.20168,-1.92218 3.06613,-3.31605 6.18592,-12.36065 8.15361,-23.63824 0.59788,-3.42673 0.86196,-7.60467 0.86035,-13.61092 -0.002,-7.5777 -0.1446,-9.15263 -1.13429,-12.53619 -2.06922,-7.07419 -4.64336,-10.71638 -8.19622,-11.59718 -3.18399,-0.78933 -5.34489,-0.93379 -7.80883,-0.52207 z"
           id="path4953" />
        <path
           style="fill:#00ff00;fill-opacity:1;stroke-width:0.495224"
           d="m 390.99017,637.49546 c -1.30016,0.3695 -2.85798,1.14007 -3.46209,1.71178 -2.03584,1.92802 -4.25769,6.28611 -5.36547,10.52408 -3.58241,13.70529 1.89274,43.81518 9.12138,50.16174 0.57696,0.50657 2.05662,1.03047 3.28815,1.16426 4.83681,0.52551 11.19397,-4.39291 14.34198,-11.09614 2.39904,-5.10844 4.50126,-11.64271 5.1792,-16.09835 0.70551,-4.63699 0.24396,-15.41161 -0.84638,-19.75771 -3.08049,-12.27886 -12.57238,-19.36244 -22.25681,-16.60976 z"
           id="path4955" />
        <path
           style="fill:#ff0000;fill-opacity:1;stroke-width:0.495224"
           d="m 324.60394,642.5185 c -2.79249,0.48701 -6.45662,2.85964 -8.41523,5.44898 -2.6453,3.49729 -3.27112,6.62959 -2.88386,14.43414 0.5711,11.5103 1.24439,17.47089 2.30764,20.42987 2.90147,8.07463 10.44591,14.09206 15.82207,12.61964 4.25332,-1.16493 10.18909,-10.12337 12.451,-18.79148 1.86713,-7.15532 0.8953,-17.67829 -2.26314,-24.50469 -1.48898,-3.21819 -5.78281,-7.8431 -8.14137,-8.7691 -2.40614,-0.9447 -6.26922,-1.32215 -8.87711,-0.86736 z"
           id="path4957" />
        <path
           style="fill:#ffff00;fill-opacity:1;stroke-width:0.495224"
           d="m 533.32769,642.71874 c -7.38753,2.12024 -12.40091,11.00195 -13.09291,23.19541 -0.56605,9.97388 3.71487,21.41549 10.18079,27.21 3.03627,2.72093 4.55797,3.16136 7.69952,2.22822 3.40189,-1.01047 5.72357,-2.99061 8.56912,-7.30849 3.12836,-4.74703 3.92694,-7.8011 4.61548,-17.65186 1.09275,-15.63339 0.39199,-19.94991 -3.89473,-23.99071 -3.85788,-3.63658 -9.28806,-5.0571 -14.07727,-3.68257 z"
           id="path4959" />
      </g>
      <text
         xml:space="preserve"
         style="font-style:normal;font-variant:normal;font-weight:normal;font-stretch:normal;font-size:32px;font-family:Oxanium;-inkscape-font-specification:'Oxanium, @wght=700';font-variant-ligatures:normal;font-variant-caps:normal;font-variant-numeric:normal;font-variant-east-asian:normal;font-variation-settings:'wght' 700;text-align:center;text-anchor:middle;fill:#000000;fill-opacity:1;stroke:none;stroke-width:4.8189;stroke-linecap:round"
         x="431.48798"
         y="-718.91998"
         id="text4965"
         transform="scale(1,-1)"><tspan
           sodipodi:role="line"
           id="tspan4963"
           style="font-style:normal;font-variant:normal;font-weight:normal;font-stretch:normal;font-size:32px;font-family:Oxanium;-inkscape-font-specification:'Oxanium, @wght=700';font-variant-ligatures:normal;font-variant-caps:normal;font-variant-numeric:normal;font-variant-east-asian:normal;font-variation-settings:'wght' 700;fill:#000000;fill-opacity:1;stroke:none;stroke-width:4.8189"
           x="431.48798"
           y="-718.91998">CAT MODE</tspan></text>
    </g>
    <g
       id="g4983"
       transform="translate(1.5828098,-287.00064)">
      <text
         xml:space="preserve"
         style="font-style:normal;font-variant:normal;font-weight:normal;font-stretch:normal;font-size:25.7874px;font-family:Oxanium;-inkscape-font-specification:'Oxanium, @wght=700';font-variant-ligatures:normal;font-variant-caps:normal;font-variant-numeric:normal;font-variant-east-asian:normal;font-variation-settings:'wght' 700;text-align:center;text-anchor:middle;fill:#000000;fill-opacity:1;stroke:none;stroke-width:4.4381;stroke-linecap:round"
         x="431.51239"
         y="-586.50702"
         id="text4971"
         transform="scale(1,-1)"><tspan
           sodipodi:role="line"
           id="tspan4969"
           style="font-style:normal;font-variant:normal;font-weight:normal;font-stretch:normal;font-size:25.7874px;font-family:Oxanium;-inkscape-font-specification:'Oxanium, @wght=700';font-variant-ligatures:normal;font-variant-caps:normal;font-variant-numeric:normal;font-variant-east-asian:normal;font-variation-settings:'wght' 700;fill:#000000;fill-opacity:1;stroke:none;stroke-width:4.4381"
           x="431.51239"
           y="-586.50702">CELERY MAN MODE</tspan></text>
      <g
         id="g4981">
        <path
           style="fill:#00ff00;fill-opacity:1;stroke-width:0.495224"
           d="m 390.20018,500.79576 c -1.30016,0.3695 -2.85798,1.14007 -3.46209,1.71178 -2.03584,1.92802 -4.25769,6.28611 -5.36547,10.52408 -3.58241,13.70529 1.89274,43.81518 9.12138,50.16174 0.57696,0.50657 2.05662,1.03047 3.28815,1.16426 4.83681,0.52551 11.19397,-4.39291 14.34198,-11.09614 2.39904,-5.10844 4.50126,-11.64271 5.1792,-16.09835 0.70551,-4.63699 0.24396,-15.41161 -0.84638,-19.75771 -3.08049,-12.27886 -12.57238,-19.36244 -22.25681,-16.60976 z"
           id="path4973" />
        <path
           style="fill:#0000ff;fill-opacity:1;stroke-width:0.495224"
           d="m 533.66067,500.49906 c -3.46394,0.57889 -4.58134,1.1803 -7.83506,4.21705 -5.61689,5.24231 -8.41284,13.51903 -8.37156,24.78191 0.0315,8.54413 1.84085,15.76305 6.07504,24.23533 3.23552,6.47405 8.71469,10.60331 14.05527,10.59247 2.1837,-0.006 2.60798,-0.19842 4.20168,-1.92218 3.06613,-3.31605 6.18592,-12.36065 8.15361,-23.63824 0.59788,-3.42673 0.86196,-7.60467 0.86035,-13.61092 -0.002,-7.5777 -0.1446,-9.15263 -1.13429,-12.53619 -2.06922,-7.07419 -4.64336,-10.71638 -8.19622,-11.59718 -3.18399,-0.78933 -5.34489,-0.93379 -7.80883,-0.52207 z"
           id="path4975" />
        <path
           style="fill:#0000ff;fill-opacity:1;stroke-width:0.495224"
           d="m 465.0806,500.49906 c -3.46394,0.57889 -4.58134,1.1803 -7.83506,4.21705 -5.61689,5.24231 -8.41284,13.51903 -8.37156,24.78191 0.0315,8.54413 1.84085,15.76305 6.07504,24.23533 3.23552,6.47405 8.71469,10.60331 14.05527,10.59247 2.1837,-0.006 2.60798,-0.19842 4.20168,-1.92218 3.06613,-3.31605 6.18592,-12.36065 8.15361,-23.63824 0.59788,-3.42673 0.86196,-7.60467 0.86035,-13.61092 -0.002,-7.5777 -0.1446,-9.15263 -1.13429,-12.53619 -2.06922,-7.07419 -4.64336,-10.71638 -8.19622,-11.59718 -3.18399,-0.78933 -5.34489,-0.93379 -7.80883,-0.52207 z"
           id="path4977" />
        <path
           style="fill:#00ff00;fill-opacity:1;stroke-width:0.495224"
           d="m 321.57201,500.79576 c -1.30016,0.3695 -2.85798,1.14007 -3.46209,1.71178 -2.03584,1.92802 -4.25769,6.28611 -5.36547,10.52408 -3.58241,13.70529 1.89274,43.81518 9.12138,50.16174 0.57696,0.50657 2.05662,1.03047 3.28815,1.16426 4.83681,0.52551 11.19397,-4.39291 14.34198,-11.09614 2.39904,-5.10844 4.50126,-11.64271 5.1792,-16.09835 0.70551,-4.63699 0.24396,-15.41161 -0.84638,-19.75771 -3.08049,-12.27886 -12.57238,-19.36244 -22.25681,-16.60976 z"
           id="path4979" />
      </g>
    </g>
    <g
       id="g4999"
       transform="translate(0,-568.69966)">
      <text
         xml:space="preserve"
         style="font-style:normal;font-variant:normal;font-weight:normal;font-stretch:normal;font-size:32px;font-family:Oxanium;-inkscape-font-specification:'Oxanium, @wght=700';font-variant-ligatures:normal;font-variant-caps:normal;font-variant-numeric:normal;font-variant-east-asian:normal;font-variation-settings:'wght' 700;text-align:center;text-anchor:middle;fill:#000000;fill-opacity:1;stroke:none;stroke-width:4.8189;stroke-linecap:round"
         x="179.48798"
         y="-718.91998"
         id="text4987"
         transform="scale(1,-1)"><tspan
           sodipodi:role="line"
           id="tspan4985"
           style="font-style:normal;font-variant:normal;font-weight:normal;font-stretch:normal;font-size:32px;font-family:Oxanium;-inkscape-font-specification:'Oxanium, @wght=700';font-variant-ligatures:normal;font-variant-caps:normal;font-variant-numeric:normal;font-variant-east-asian:normal;font-variation-settings:'wght' 700;fill:#000000;fill-opacity:1;stroke:none;stroke-width:4.8189"
           x="179.48798"
           y="-718.91998">DOG MODE</tspan></text>
      <g
         id="g4997">
        <path
           style="fill:#0000ff;fill-opacity:1;stroke-width:0.495224"
           d="m 144.86482,637.19876 c -3.46394,0.57889 -4.58134,1.1803 -7.83506,4.21705 -5.61689,5.24231 -8.41284,13.51903 -8.37156,24.78191 0.0315,8.54413 1.84085,15.76305 6.07504,24.23533 3.23552,6.47405 8.71469,10.60331 14.05527,10.59247 2.1837,-0.006 2.60798,-0.19842 4.20168,-1.92218 3.06613,-3.31605 6.18592,-12.36065 8.15361,-23.63824 0.59788,-3.42673 0.86196,-7.60467 0.86035,-13.61092 -0.002,-7.5777 -0.1446,-9.15263 -1.13429,-12.53619 -2.06922,-7.07419 -4.64336,-10.71638 -8.19622,-11.59718 -3.18399,-0.78933 -5.34489,-0.93379 -7.80883,-0.52207 z"
           id="path4989" />
        <path
           style="fill:#00ff00;fill-opacity:1;stroke-width:0.495224"
           d="m 207.84406,637.49546 c -1.30016,0.3695 -2.85798,1.14007 -3.46209,1.71178 -2.03584,1.92802 -4.25769,6.28611 -5.36547,10.52408 -3.58241,13.70529 1.89274,43.81518 9.12138,50.16174 0.57696,0.50657 2.05662,1.03047 3.28815,1.16426 4.83681,0.52551 11.19397,-4.39291 14.34198,-11.09614 2.39904,-5.10844 4.50126,-11.64271 5.1792,-16.09835 0.70551,-4.63699 0.24396,-15.41161 -0.84638,-19.75771 -3.08049,-12.27886 -12.57238,-19.36244 -22.25681,-16.60976 z"
           id="path4991" />
        <path
           style="fill:#ff0000;fill-opacity:1;stroke-width:0.495224"
           d="m 278.57278,642.5185 c -2.79249,0.48701 -6.45662,2.85964 -8.41523,5.44898 -2.6453,3.49729 -3.27112,6.62959 -2.88386,14.43414 0.5711,11.5103 1.24439,17.47089 2.30764,20.42987 2.90147,8.07463 10.44591,14.09206 15.82207,12.61964 4.25332,-1.16493 10.18909,-10.12337 12.451,-18.79148 1.86713,-7.15532 0.8953,-17.67829 -2.26314,-24.50469 -1.48898,-3.21819 -5.78281,-7.8431 -8.14137,-8.7691 -2.40614,-0.9447 -6.26922,-1.32215 -8.87711,-0.86736 z"
           id="path4993" />
        <path
           style="fill:#ffff00;fill-opacity:1;stroke-width:0.495224"
           d="m 74.343034,642.71874 c -7.38753,2.12024 -12.40091,11.00195 -13.09291,23.19541 -0.56605,9.97388 3.71487,21.41549 10.18079,27.21 3.03627,2.72093 4.55797,3.16136 7.69952,2.22822 3.40189,-1.01047 5.72357,-2.99061 8.56912,-7.30849 3.128361,-4.74703 3.926941,-7.8011 4.615481,-17.65186 1.09275,-15.63339 0.39199,-19.94991 -3.894731,-23.99071 -3.85788,-3.63658 -9.28806,-5.0571 -14.07727,-3.68257 z"
           id="path4995" />
      </g>
    </g>
    <g
       id="g5015"
       transform="translate(0,-568.69966)">
      <g
         id="g5009">
        <path
           style="fill:#0000ff;fill-opacity:1;stroke-width:0.495224"
           d="m 466.84113,637.19876 c -3.46394,0.57889 -4.58134,1.1803 -7.83506,4.21705 -5.61689,5.24231 -8.41284,13.51903 -8.37156,24.78191 0.0315,8.54413 1.84085,15.76305 6.07504,24.23533 3.23552,6.47405 8.71469,10.60331 14.05527,10.59247 2.1837,-0.006 2.60798,-0.19842 4.20168,-1.92218 3.06613,-3.31605 6.18592,-12.36065 8.15361,-23.63824 0.59788,-3.42673 0.86196,-7.60467 0.86035,-13.61092 -0.002,-7.5777 -0.1446,-9.15263 -1.13429,-12.53619 -2.06922,-7.07419 -4.64336,-10.71638 -8.19622,-11.59718 -3.18399,-0.78933 -5.34489,-0.93379 -7.80883,-0.52207 z"
           id="path5001" />
        <path
           style="fill:#00ff00;fill-opacity:1;stroke-width:0.495224"
           d="m 390.99017,637.49546 c -1.30016,0.3695 -2.85798,1.14007 -3.46209,1.71178 -2.03584,1.92802 -4.25769,6.28611 -5.36547,10.52408 -3.58241,13.70529 1.89274,43.81518 9.12138,50.16174 0.57696,0.50657 2.05662,1.03047 3.28815,1.16426 4.83681,0.52551 11.19397,-4.39291 14.34198,-11.09614 2.39904,-5.10844 4.50126,-11.64271 5.1792,-16.09835 0.70551,-4.63699 0.24396,-15.41161 -0.84638,-19.75771 -3.08049,-12.27886 -12.57238,-19.36244 -22.25681,-16.60976 z"
           id="path5003" />
        <path
           style="fill:#ff0000;fill-opacity:1;stroke-width:0.495224"
           d="m 324.60394,642.5185 c -2.79249,0.48701 -6.45662,2.85964 -8.41523,5.44898 -2.6453,3.49729 -3.27112,6.62959 -2.88386,14.43414 0.5711,11.5103 1.24439,17.47089 2.30764,20.42987 2.90147,8.07463 10.44591,14.09206 15.82207,12.61964 4.25332,-1.16493 10.18909,-10.12337 12.451,-18.79148 1.86713,-7.15532 0.8953,-17.67829 -2.26314,-24.50469 -1.48898,-3.21819 -5.78281,-7.8431 -8.14137,-8.7691 -2.40614,-0.9447 -6.26922,-1.32215 -8.87711,-0.86736 z"
           id="path5005" />
        <path
           style="fill:#ffff00;fill-opacity:1;stroke-width:0.495224"
           d="m 533.32769,642.71874 c -7.38753,2.12024 -12.40091,11.00195 -13.09291,23.19541 -0.56605,9.97388 3.71487,21.41549 10.18079,27.21 3.03627,2.72093 4.55797,3.16136 7.69952,2.22822 3.40189,-1.01047 5.72357,-2.99061 8.56912,-7.30849 3.12836,-4.74703 3.92694,-7.8011 4.61548,-17.65186 1.09275,-15.63339 0.39199,-19.94991 -3.89473,-23.99071 -3.85788,-3.63658 -9.28806,-5.0571 -14.07727,-3.68257 z"
           id="path5007" />
      </g>
      <text
         xml:space="preserve"
         style="font-style:normal;font-variant:normal;font-weight:normal;font-stretch:normal;font-size:32px;font-family:Oxanium;-inkscape-font-specification:'Oxanium, @wght=700';font-variant-ligatures:normal;font-variant-caps:normal;font-variant-numeric:normal;font-variant-east-asian:normal;font-variation-settings:'wght' 700;text-align:center;text-anchor:middle;fill:#000000;fill-opacity:1;stroke:none;stroke-width:4.8189;stroke-linecap:round"
         x="431.48798"
         y="-718.91998"
         id="text5013"
         transform="scale(1,-1)"><tspan
           sodipodi:role="line"
           id="tspan5011"
           style="font-style:normal;font-variant:normal;font-weight:normal;font-stretch:normal;font-size:32px;font-family:Oxanium;-inkscape-font-specification:'Oxanium, @wght=700';font-variant-ligatures:normal;font-variant-caps:normal;font-variant-numeric:normal;font-variant-east-asian:normal;font-variation-settings:'wght' 700;fill:#000000;fill-opacity:1;stroke:none;stroke-width:4.8189"
           x="431.48798"
           y="-718.91998">CAT MODE</tspan></text>
    </g>
  </g>
</svg>
