<?xml version="1.0" encoding="UTF-8" standalone="no"?>
<!-- Created with Inkscape (http://www.inkscape.org/) -->

<svg
   version="1.1"
   id="svg434"
   width="8.5in"
   height="11in"
   viewBox="0 0 816 1056"
   sodipodi:docname="CheatCodesReverse.svg"
   inkscape:version="1.3 (0e150ed6c4, 2023-07-21)"
   xml:space="preserve"
   xmlns:inkscape="http://www.inkscape.org/namespaces/inkscape"
   xmlns:sodipodi="http://sodipodi.sourceforge.net/DTD/sodipodi-0.dtd"
   xmlns="http://www.w3.org/2000/svg"
   xmlns:svg="http://www.w3.org/2000/svg"><defs
     id="defs438"><clipPath
       clipPathUnits="userSpaceOnUse"
       id="clipPath450"><path
         d="M 54,612 H 306 V 756 H 54 Z"
         id="path448" /></clipPath><clipPath
       clipPathUnits="userSpaceOnUse"
       id="clipPath460"><path
         d="M 306,612 H 558 V 756 H 306 Z"
         id="path458" /></clipPath><clipPath
       clipPathUnits="userSpaceOnUse"
       id="clipPath470"><path
         d="M 54,468 H 306 V 612 H 54 Z"
         id="path468" /></clipPath><clipPath
       clipPathUnits="userSpaceOnUse"
       id="clipPath480"><path
         d="M 306,468 H 558 V 612 H 306 Z"
         id="path478" /></clipPath><clipPath
       clipPathUnits="userSpaceOnUse"
       id="clipPath490"><path
         d="M 54,324 H 306 V 468 H 54 Z"
         id="path488" /></clipPath><clipPath
       clipPathUnits="userSpaceOnUse"
       id="clipPath500"><path
         d="M 306,324 H 558 V 468 H 306 Z"
         id="path498" /></clipPath><clipPath
       clipPathUnits="userSpaceOnUse"
       id="clipPath510"><path
         d="M 54,180 H 306 V 324 H 54 Z"
         id="path508" /></clipPath><clipPath
       clipPathUnits="userSpaceOnUse"
       id="clipPath520"><path
         d="M 306,180 H 558 V 324 H 306 Z"
         id="path518" /></clipPath><clipPath
       clipPathUnits="userSpaceOnUse"
       id="clipPath530"><path
         d="M 54,36 H 306 V 180 H 54 Z"
         id="path528" /></clipPath><clipPath
       clipPathUnits="userSpaceOnUse"
       id="clipPath540"><path
         d="M 306,36 H 558 V 180 H 306 Z"
         id="path538" /></clipPath></defs><sodipodi:namedview
     id="namedview436"
     pagecolor="#ffffff"
     bordercolor="#000000"
     borderopacity="0.25"
     inkscape:showpageshadow="2"
     inkscape:pageopacity="0.0"
     inkscape:pagecheckerboard="0"
     inkscape:deskcolor="#d1d1d1"
     showgrid="false"
     inkscape:zoom="1.1881003"
     inkscape:cx="472.60318"
     inkscape:cy="450.71951"
     inkscape:window-width="1920"
     inkscape:window-height="1027"
     inkscape:window-x="-8"
     inkscape:window-y="-8"
     inkscape:window-maximized="1"
     inkscape:current-layer="g442"
     showguides="true"
     inkscape:document-units="in"><inkscape:page
       x="0"
       y="0"
       id="page440"
       width="816"
       height="1056"
       margin="0"
       bleed="0" /><sodipodi:guide
       position="81.6,929.99998"
       orientation="-1,0"
       id="guide4367"
       inkscape:locked="false"
       inkscape:label=""
       inkscape:color="rgb(0,134,229)" /><sodipodi:guide
       position="398.4,911.99998"
       orientation="-1,0"
       id="guide4371"
       inkscape:locked="false"
       inkscape:label=""
       inkscape:color="rgb(0,134,229)" /><sodipodi:guide
       position="158.66669,998.4"
       orientation="0,1"
       id="guide4375"
       inkscape:locked="false"
       inkscape:label=""
       inkscape:color="rgb(0,134,229)" /><sodipodi:guide
       position="417.6,911.99998"
       orientation="-1,0"
       id="guide4540"
       inkscape:locked="false"
       inkscape:label=""
       inkscape:color="rgb(0,134,229)" /><sodipodi:guide
       position="735.06624,866.22219"
       orientation="-1,0"
       id="guide4542"
       inkscape:locked="false"
       inkscape:label=""
       inkscape:color="rgb(0,134,229)" /><sodipodi:guide
       position="157.11114,805.73376"
       orientation="0,1"
       id="guide4544"
       inkscape:locked="false"
       inkscape:label=""
       inkscape:color="rgb(0,134,229)" /><sodipodi:guide
       position="188.22225,615.06624"
       orientation="0,1"
       id="guide4546"
       inkscape:locked="false"
       inkscape:label=""
       inkscape:color="rgb(0,134,229)" /><sodipodi:guide
       position="216.22226,423.06624"
       orientation="0,1"
       id="guide4548"
       inkscape:locked="false"
       inkscape:label=""
       inkscape:color="rgb(0,134,229)" /><sodipodi:guide
       position="218.55559,229.73376"
       orientation="0,1"
       id="guide4550"
       inkscape:locked="false"
       inkscape:label=""
       inkscape:color="rgb(0,134,229)" /></sodipodi:namedview><g
     inkscape:groupmode="layer"
     id="layer1"
     inkscape:label="Guides"
     style="display:inline"><g
       id="g444"
       transform="matrix(1.3333333,0,0,-1.3333333,1.392e-5,1056)"><g
         id="g446"
         clip-path="url(#clipPath450)"><path
           d="M 54,612 H 306 V 756 H 54 Z"
           style="fill:none;stroke:#060706;stroke-width:1;stroke-linecap:butt;stroke-linejoin:miter;stroke-miterlimit:10;stroke-dasharray:none;stroke-opacity:1"
           id="path452" /></g></g><g
       id="g454"
       transform="matrix(1.3333333,0,0,-1.3333333,0,1056)"><g
         id="g456"
         clip-path="url(#clipPath460)"><path
           d="M 306,612 H 558 V 756 H 306 Z"
           style="fill:none;stroke:#060706;stroke-width:1;stroke-linecap:butt;stroke-linejoin:miter;stroke-miterlimit:10;stroke-dasharray:none;stroke-opacity:1"
           id="path462" /></g></g><g
       id="g464"
       transform="matrix(1.3333333,0,0,-1.3333333,0,1056)"><g
         id="g466"
         clip-path="url(#clipPath470)"><path
           d="M 54,468 H 306 V 612 H 54 Z"
           style="fill:none;stroke:#060706;stroke-width:1;stroke-linecap:butt;stroke-linejoin:miter;stroke-miterlimit:10;stroke-dasharray:none;stroke-opacity:1"
           id="path472" /></g></g><g
       id="g474"
       transform="matrix(1.3333333,0,0,-1.3333333,0,1056)"><g
         id="g476"
         clip-path="url(#clipPath480)"><path
           d="M 306,468 H 558 V 612 H 306 Z"
           style="fill:none;stroke:#060706;stroke-width:1;stroke-linecap:butt;stroke-linejoin:miter;stroke-miterlimit:10;stroke-dasharray:none;stroke-opacity:1"
           id="path482" /></g></g><g
       id="g484"
       transform="matrix(1.3333333,0,0,-1.3333333,0,1056)"><g
         id="g486"
         clip-path="url(#clipPath490)"><path
           d="M 54,324 H 306 V 468 H 54 Z"
           style="fill:none;stroke:#060706;stroke-width:1;stroke-linecap:butt;stroke-linejoin:miter;stroke-miterlimit:10;stroke-dasharray:none;stroke-opacity:1"
           id="path492" /></g></g><g
       id="g494"
       transform="matrix(1.3333333,0,0,-1.3333333,0,1056)"><g
         id="g496"
         clip-path="url(#clipPath500)"><path
           d="M 306,324 H 558 V 468 H 306 Z"
           style="fill:none;stroke:#060706;stroke-width:1;stroke-linecap:butt;stroke-linejoin:miter;stroke-miterlimit:10;stroke-dasharray:none;stroke-opacity:1"
           id="path502" /></g></g><g
       id="g504"
       transform="matrix(1.3333333,0,0,-1.3333333,0,1056)"><g
         id="g506"
         clip-path="url(#clipPath510)"><path
           d="M 54,180 H 306 V 324 H 54 Z"
           style="fill:none;stroke:#060706;stroke-width:1;stroke-linecap:butt;stroke-linejoin:miter;stroke-miterlimit:10;stroke-dasharray:none;stroke-opacity:1"
           id="path512" /></g></g><g
       id="g514"
       transform="matrix(1.3333333,0,0,-1.3333333,0,1056)"><g
         id="g516"
         clip-path="url(#clipPath520)"><path
           d="M 306,180 H 558 V 324 H 306 Z"
           style="fill:none;stroke:#060706;stroke-width:1;stroke-linecap:butt;stroke-linejoin:miter;stroke-miterlimit:10;stroke-dasharray:none;stroke-opacity:1"
           id="path522" /></g></g><g
       id="g524"
       transform="matrix(1.3333333,0,0,-1.3333333,0,1056)"><g
         id="g526"
         clip-path="url(#clipPath530)"><path
           d="M 54,36 H 306 V 180 H 54 Z"
           style="fill:none;stroke:#060706;stroke-width:1;stroke-linecap:butt;stroke-linejoin:miter;stroke-miterlimit:10;stroke-dasharray:none;stroke-opacity:1"
           id="path532" /></g></g><g
       id="g534"
       transform="matrix(1.3333333,0,0,-1.3333333,0,1056)"><g
         id="g536"
         clip-path="url(#clipPath540)"><path
           d="M 306,36 H 558 V 180 H 306 Z"
           style="fill:none;stroke:#060706;stroke-width:1;stroke-linecap:butt;stroke-linejoin:miter;stroke-miterlimit:10;stroke-dasharray:none;stroke-opacity:1"
           id="path542" /></g></g></g><g
     id="g442"
     inkscape:groupmode="layer"
     inkscape:label="Page 1"
     transform="matrix(1.3333333,0,0,-1.3333333,0,1056)"><path
       style="fill:#0000ff;fill-opacity:1;stroke-width:0.495224"
       d="m -192.83005,738.59937 c -3.46394,0.57889 -4.58134,1.1803 -7.83506,4.21705 -5.61689,5.24231 -8.41284,13.51903 -8.37156,24.78191 0.0315,8.54413 1.84085,15.76305 6.07504,24.23533 3.23552,6.47405 8.71469,10.60331 14.05527,10.59247 2.1837,-0.006 2.60798,-0.19842 4.20168,-1.92218 3.06613,-3.31605 6.18592,-12.36065 8.15361,-23.63824 0.59788,-3.42673 0.86196,-7.60467 0.86035,-13.61092 -0.002,-7.5777 -0.1446,-9.15263 -1.13429,-12.53619 -2.06922,-7.07419 -4.64336,-10.71638 -8.19622,-11.59718 -3.18399,-0.78933 -5.34489,-0.93379 -7.80883,-0.52207 z"
       id="path1359" /><path
       style="fill:#00ff00;fill-opacity:1;stroke-width:0.495224"
       d="m -159.29454,738.11446 c -1.30016,0.3695 -2.85798,1.14007 -3.46209,1.71178 -2.03584,1.92802 -4.25769,6.28611 -5.36547,10.52408 -3.58241,13.70529 1.89274,43.81518 9.12138,50.16174 0.57696,0.50657 2.05662,1.03047 3.28815,1.16426 4.83681,0.52551 11.19397,-4.39291 14.34198,-11.09614 2.39904,-5.10844 4.50126,-11.64271 5.1792,-16.09835 0.70551,-4.63699 0.24396,-15.41161 -0.84638,-19.75771 -3.08049,-12.27886 -12.57238,-19.36244 -22.25681,-16.60976 z"
       id="path1357" /><path
       style="fill:#ff0000;fill-opacity:1;stroke-width:0.495224"
       d="m -128.91497,705.57237 c -2.79249,0.48701 -6.45662,2.85964 -8.41523,5.44898 -2.6453,3.49729 -3.27112,6.62959 -2.88386,14.43414 0.5711,11.5103 1.24439,17.47089 2.30764,20.42987 2.90147,8.07463 10.44591,14.09206 15.82207,12.61964 4.25332,-1.16493 10.18909,-10.12337 12.451,-18.79148 1.86713,-7.15532 0.8953,-17.67829 -2.26314,-24.50469 -1.48898,-3.21819 -5.78281,-7.8431 -8.14137,-8.7691 -2.40614,-0.9447 -6.26922,-1.32215 -8.87711,-0.86736 z"
       id="path1355" /><path
       style="fill:#ffff00;fill-opacity:1;stroke-width:0.495224"
       d="m -223.19972,706.1507 c -7.38753,2.12024 -12.40091,11.00195 -13.09291,23.19541 -0.56605,9.97388 3.71487,21.41549 10.18079,27.21 3.03627,2.72093 4.55797,3.16136 7.69952,2.22822 3.40189,-1.01047 5.72357,-2.99061 8.56912,-7.30849 3.12836,-4.74703 3.92694,-7.8011 4.61548,-17.65186 1.09275,-15.63339 0.39199,-19.94991 -3.89473,-23.99071 -3.85788,-3.63658 -9.28806,-5.0571 -14.07727,-3.68257 z"
       id="path1353" /><path
       style="fill:#000000;stroke-width:0.495224"
       d="m -210.70056,666.48955 c -3.34632,1.63294 -6.01325,4.44227 -7.76141,8.17565 -1.31718,2.813 -1.43772,3.4976 -1.26522,7.18592 0.17275,3.6965 0.4124,4.5185 2.56811,8.81359 1.3076,2.60525 3.13841,5.61869 4.06852,6.69649 1.75134,2.02947 12.88438,10.85944 16.70851,13.25207 3.18437,1.99237 7.03124,5.74384 11.54331,11.2571 4.17258,5.09842 6.83466,7.17563 10.48608,8.18215 4.76471,1.31342 10.41474,-1.91847 15.47097,-8.84955 3.38637,-4.64208 7.35764,-8.29851 14.87883,-13.69939 10.6499,-7.64754 15.80098,-13.56018 18.34775,-21.06033 1.96535,-5.78796 0.75305,-11.98905 -3.17795,-16.2556 -3.50025,-3.79908 -6.63827,-5.15113 -11.89159,-5.12361 -3.47333,0.0168 -4.88853,0.30348 -9.06123,1.82662 -8.7177,3.18222 -12.66409,4.2059 -18.51871,4.80383 -5.20549,0.53161 -6.28241,0.48883 -11.85107,-0.47077 -4.0084,-0.69074 -8.20612,-1.83948 -12.14644,-3.32407 -5.40427,-2.03613 -6.52869,-2.2864 -10.97419,-2.44235 -4.45077,-0.15614 -5.20355,-0.0514 -7.42427,1.03225 z"
       id="path863" /><g
       id="g1"
       transform="translate(0,11.219831)"><g
         id="g47"
         transform="matrix(0.74054821,0,0,-0.74054821,89.903081,473.84716)"><text
           xml:space="preserve"
           style="font-style:normal;font-variant:normal;font-weight:800;font-stretch:normal;font-size:26.9547px;line-height:1.25;font-family:'open sans';-inkscape-font-specification:'open sans, Ultra-Bold';font-variant-ligatures:normal;font-variant-caps:normal;font-variant-numeric:normal;font-feature-settings:normal;text-align:start;letter-spacing:0px;word-spacing:0px;writing-mode:lr-tb;text-anchor:start;fill:#000000;fill-opacity:1;stroke:none;stroke-width:0.673868"
           x="68.620575"
           y="-296.6893"
           id="text37"><tspan
             sodipodi:role="line"
             id="tspan35"
             x="68.620575"
             y="-296.6893"
             style="font-style:normal;font-variant:normal;font-weight:800;font-stretch:normal;font-size:26.9547px;font-family:'open sans';-inkscape-font-specification:'open sans, Ultra-Bold';font-variant-ligatures:normal;font-variant-caps:normal;font-variant-numeric:normal;font-feature-settings:normal;text-align:start;writing-mode:lr-tb;text-anchor:start;stroke-width:0.673868">PAWPRINT</tspan></text><text
           xml:space="preserve"
           style="font-style:normal;font-variant:normal;font-weight:bold;font-stretch:normal;font-size:21.4417px;line-height:1.25;font-family:Oxanium;-inkscape-font-specification:'Oxanium, Bold';font-variant-ligatures:normal;font-variant-caps:normal;font-variant-numeric:normal;font-feature-settings:normal;text-align:start;letter-spacing:0px;word-spacing:0px;writing-mode:lr-tb;text-anchor:start;fill:#000000;fill-opacity:1;stroke:none;stroke-width:0.536041"
           x="68.941872"
           y="-276.6525"
           id="text41"><tspan
             sodipodi:role="line"
             id="tspan39"
             x="68.941872"
             y="-276.6525"
             style="font-style:normal;font-variant:normal;font-weight:bold;font-stretch:normal;font-size:21.4417px;font-family:Oxanium;-inkscape-font-specification:'Oxanium, Bold';font-variant-ligatures:normal;font-variant-caps:normal;font-variant-numeric:normal;font-feature-settings:normal;text-align:start;writing-mode:lr-tb;text-anchor:start;stroke-width:0.536041">PROTOTYPING</tspan></text><path
           style="fill:#ff0000;fill-opacity:1;stroke-width:0.989237"
           d="m 868.85352,350.625 c 13.64809,19.90146 20.57268,40.62319 20.47265,61.46484 C 888.52574,525.9497 682.81734,617.22964 429.86523,615.96875 263.31991,615.04186 110.30263,573.4945 30.259766,507.4668 99.024315,586.24716 267.20404,638.57657 454.73633,639.54492 c 252.95115,1.26025 459.08437,-104.9804 459.88476,-218.83984 0.04,-21.45818 -6.43684,-48.40614 -20.83398,-70.08008 z"
           id="path43"
           transform="matrix(0.26458333,0,0,0.26458333,-3.337409,-408.7801)"
           inkscape:connector-curvature="0" /><path
           style="fill:#000000;stroke-width:0.174704"
           d="m 38.296712,-267.9632 c -1.311947,-0.0652 -2.566809,-0.60623 -3.651926,-1.57447 -0.817601,-0.72954 -0.951704,-0.93485 -1.407638,-2.15503 -0.456986,-1.22287 -0.493337,-1.52273 -0.39026,-3.21494 0.06253,-1.02644 0.238103,-2.25788 0.390185,-2.73653 0.286358,-0.90128 2.671704,-5.31021 3.579932,-6.61694 0.756286,-1.08813 1.483305,-2.83873 2.181561,-5.25306 0.645724,-2.23267 1.220842,-3.27583 2.265424,-4.10903 1.363066,-1.08725 3.644084,-0.82318 6.245903,0.72307 1.742555,1.0356 3.538016,1.67035 6.726938,2.37821 4.515454,1.00231 7.006692,2.20508 8.873588,4.28417 1.440701,1.60446 1.908125,3.78392 1.225301,5.71326 -0.607993,1.71794 -1.438109,2.59196 -3.145745,3.31211 -1.128845,0.47659 -1.627624,0.58002 -3.192352,0.66512 -3.269067,0.17778 -4.691082,0.39346 -6.672907,1.01206 -1.762086,0.55002 -2.105426,0.71335 -3.778343,1.79742 -1.204191,0.78033 -2.406216,1.73548 -3.478153,2.76383 -1.470196,1.41041 -1.800147,1.64763 -3.220322,2.31517 -1.421856,0.66834 -1.68055,0.73883 -2.551186,0.69558 z m -9.5582,-11.1287 c -2.690268,0.33761 -5.548906,-1.84724 -7.465597,-5.70593 -1.5678,-3.15629 -1.76727,-7.46129 -0.47435,-10.238 0.60714,-1.30387 1.03955,-1.6579 2.187957,-1.79125 1.243582,-0.1444 2.271389,0.17561 3.79354,1.18112 1.673439,1.10545 2.356297,1.98515 3.946739,5.08451 2.524078,4.91875 2.895859,6.41599 2.066336,8.32148 -0.746533,1.71487 -2.31057,2.92921 -4.054625,3.14807 z m 30.659825,-12.89762 c -0.973283,0.2296 -2.490963,-0.0314 -3.485564,-0.59938 -1.343318,-0.76716 -1.981003,-1.69621 -2.938551,-4.28122 -1.412216,-3.81242 -2.021081,-5.83907 -2.086894,-6.94632 -0.179588,-3.02154 1.432193,-6.02023 3.380209,-6.2888 1.541156,-0.21247 4.709604,1.86925 6.6462,4.36668 1.598617,2.06157 2.743836,5.60938 2.666847,8.26174 -0.03629,1.25041 -0.787056,3.34633 -1.423498,3.97399 -0.649279,0.64033 -1.849811,1.29888 -2.758749,1.51331 z m -14.369384,-6.33825 c -0.472967,0.0606 -1.085157,0.0269 -1.360435,-0.0747 -0.927866,-0.34278 -2.253313,-1.44789 -3.200763,-2.66866 -3.063964,-3.94788 -5.466959,-14.47334 -4.00328,-17.53495 0.116824,-0.24437 0.524017,-0.61964 0.904873,-0.83395 1.495801,-0.84171 4.240225,-0.12878 6.191522,1.6084 1.487057,1.32388 3.075727,3.1514 3.913972,4.50242 0.872358,1.40601 2.218004,4.96462 2.467542,6.52552 0.705001,4.40995 -1.390434,8.0247 -4.913431,8.47596 z m -10.943936,4.49691 c -1.203806,0.29299 -1.64968,0.25301 -3.126417,-0.28034 -2.549286,-0.92072 -4.604776,-3.21709 -6.15449,-6.87573 -1.175565,-2.77551 -1.590608,-5.36794 -1.393143,-8.70341 0.150892,-2.54878 1.354887,-4.64845 3.088511,-5.38612 0.70907,-0.30114 0.87339,-0.29759 1.629509,0.0403 1.454657,0.64997 3.721749,3.15045 5.925079,6.53505 0.669485,1.02842 1.334965,2.34681 2.168012,4.29505 1.051013,2.45797 1.223337,2.98856 1.371935,4.22331 0.310667,2.58156 -0.01872,4.12009 -1.048796,4.89884 -0.923124,0.69789 -1.603927,1.04464 -2.4602,1.25306 z m -14.726832,-4.31778 c -0.76099,-1.79836 -0.99598,-4.28694 -0.53668,-5.68331 0.0934,-0.28392 0.17044,-0.57571 0.17124,-0.64842 0.004,-0.338 0.73261,-1.27497 0.89969,-1.15647 0.0985,0.0698 0.46755,1.05229 0.82028,2.18327 0.59932,1.9218 0.70072,2.13489 1.54959,3.25617 0.499574,0.6599 0.891843,1.24043 0.871714,1.29009 -0.02013,0.0497 -0.377037,0.13729 -0.793124,0.19479 -0.78173,0.10799 -2.13428,0.92627 -2.19647,1.3289 -0.0767,0.49654 -0.37528,0.20604 -0.7862,-0.76504 z m 34.696178,-13.71865 c -0.70076,-0.006 -2.197722,0.5923 -2.539341,1.01558 -0.138265,0.17129 -0.285184,0.29748 -0.32648,0.28043 -0.04127,-0.0171 -0.211659,-0.74153 -0.378579,-1.60991 -0.257477,-1.33952 -0.415592,-1.77593 -1.042885,-2.87848 -1.626898,-2.85947 -1.642301,-3.00643 -0.267249,-2.55041 1.67962,0.55703 3.348538,2.0713 4.537225,4.11681 0.803861,1.38328 0.806523,1.63316 0.01732,1.62599 z m -15.94687,-10.11492 c -0.787156,0.0258 -1.629393,0.34174 -2.252104,0.84495 -0.547683,0.44253 -0.547827,0.44231 -0.869974,-1.34624 -0.201876,-1.12081 -0.361102,-1.52738 -1.178014,-3.008 -1.198272,-2.17184 -1.283294,-2.38005 -1.017753,-2.49241 0.3105,-0.13139 2.452921,0.84221 3.150194,1.43158 1.207094,1.02028 3.397844,4.37126 2.948421,4.5099 -0.06909,0.0216 -0.420548,0.0485 -0.780738,0.0602 z m -14.820042,5.99256 c -0.128985,-0.15085 -0.384292,-0.83245 -0.567307,-1.51468 -0.566969,-2.11389 -0.537859,-3.80165 0.09533,-5.5271 0.2202,-0.60004 0.49905,-1.13274 0.619679,-1.18379 0.26595,-0.11254 0.679668,0.80084 1.049952,2.31805 0.237215,0.97191 1.061115,2.62655 1.953902,3.92413 l 0.313965,0.4563 -1.250938,0.43716 c -0.978355,0.3419 -1.313962,0.53126 -1.540217,0.86882 -0.365088,0.54475 -0.390426,0.55305 -0.674404,0.22109 z"
           id="path45"
           inkscape:connector-curvature="0" /></g><text
         xml:space="preserve"
         style="font-style:normal;font-variant:normal;font-weight:normal;font-stretch:normal;font-size:11.8844px;line-height:1.25;font-family:Arial;-inkscape-font-specification:Arial;letter-spacing:0px;word-spacing:0px;fill:#000000;fill-opacity:1;stroke:none;stroke-width:0.297109"
         x="112.84125"
         y="-631.19324"
         id="text1"
         transform="scale(1,-1)"><tspan
           sodipodi:role="line"
           id="tspan1"
           style="font-style:normal;font-variant:normal;font-weight:normal;font-stretch:normal;font-family:Oxanium;-inkscape-font-specification:Oxanium;stroke-width:0.297109"
           x="112.84125"
           y="-631.19324">pawprintprototyping.org</tspan></text></g><g
       id="g5"
       transform="translate(251.99999,11.219831)"><g
         id="g4"
         transform="matrix(0.74054821,0,0,-0.74054821,89.903081,473.84716)"><text
           xml:space="preserve"
           style="font-style:normal;font-variant:normal;font-weight:800;font-stretch:normal;font-size:26.9547px;line-height:1.25;font-family:'open sans';-inkscape-font-specification:'open sans, Ultra-Bold';font-variant-ligatures:normal;font-variant-caps:normal;font-variant-numeric:normal;font-feature-settings:normal;text-align:start;letter-spacing:0px;word-spacing:0px;writing-mode:lr-tb;text-anchor:start;fill:#000000;fill-opacity:1;stroke:none;stroke-width:0.673868"
           x="68.620575"
           y="-296.6893"
           id="text2"><tspan
             sodipodi:role="line"
             id="tspan2"
             x="68.620575"
             y="-296.6893"
             style="font-style:normal;font-variant:normal;font-weight:800;font-stretch:normal;font-size:26.9547px;font-family:'open sans';-inkscape-font-specification:'open sans, Ultra-Bold';font-variant-ligatures:normal;font-variant-caps:normal;font-variant-numeric:normal;font-feature-settings:normal;text-align:start;writing-mode:lr-tb;text-anchor:start;stroke-width:0.673868">PAWPRINT</tspan></text><text
           xml:space="preserve"
           style="font-style:normal;font-variant:normal;font-weight:bold;font-stretch:normal;font-size:21.4417px;line-height:1.25;font-family:Oxanium;-inkscape-font-specification:'Oxanium, Bold';font-variant-ligatures:normal;font-variant-caps:normal;font-variant-numeric:normal;font-feature-settings:normal;text-align:start;letter-spacing:0px;word-spacing:0px;writing-mode:lr-tb;text-anchor:start;fill:#000000;fill-opacity:1;stroke:none;stroke-width:0.536041"
           x="68.941872"
           y="-276.6525"
           id="text3"><tspan
             sodipodi:role="line"
             id="tspan3"
             x="68.941872"
             y="-276.6525"
             style="font-style:normal;font-variant:normal;font-weight:bold;font-stretch:normal;font-size:21.4417px;font-family:Oxanium;-inkscape-font-specification:'Oxanium, Bold';font-variant-ligatures:normal;font-variant-caps:normal;font-variant-numeric:normal;font-feature-settings:normal;text-align:start;writing-mode:lr-tb;text-anchor:start;stroke-width:0.536041">PROTOTYPING</tspan></text><path
           style="fill:#ff0000;fill-opacity:1;stroke-width:0.989237"
           d="m 868.85352,350.625 c 13.64809,19.90146 20.57268,40.62319 20.47265,61.46484 C 888.52574,525.9497 682.81734,617.22964 429.86523,615.96875 263.31991,615.04186 110.30263,573.4945 30.259766,507.4668 99.024315,586.24716 267.20404,638.57657 454.73633,639.54492 c 252.95115,1.26025 459.08437,-104.9804 459.88476,-218.83984 0.04,-21.45818 -6.43684,-48.40614 -20.83398,-70.08008 z"
           id="path3"
           transform="matrix(0.26458333,0,0,0.26458333,-3.337409,-408.7801)"
           inkscape:connector-curvature="0" /><path
           style="fill:#000000;stroke-width:0.174704"
           d="m 38.296712,-267.9632 c -1.311947,-0.0652 -2.566809,-0.60623 -3.651926,-1.57447 -0.817601,-0.72954 -0.951704,-0.93485 -1.407638,-2.15503 -0.456986,-1.22287 -0.493337,-1.52273 -0.39026,-3.21494 0.06253,-1.02644 0.238103,-2.25788 0.390185,-2.73653 0.286358,-0.90128 2.671704,-5.31021 3.579932,-6.61694 0.756286,-1.08813 1.483305,-2.83873 2.181561,-5.25306 0.645724,-2.23267 1.220842,-3.27583 2.265424,-4.10903 1.363066,-1.08725 3.644084,-0.82318 6.245903,0.72307 1.742555,1.0356 3.538016,1.67035 6.726938,2.37821 4.515454,1.00231 7.006692,2.20508 8.873588,4.28417 1.440701,1.60446 1.908125,3.78392 1.225301,5.71326 -0.607993,1.71794 -1.438109,2.59196 -3.145745,3.31211 -1.128845,0.47659 -1.627624,0.58002 -3.192352,0.66512 -3.269067,0.17778 -4.691082,0.39346 -6.672907,1.01206 -1.762086,0.55002 -2.105426,0.71335 -3.778343,1.79742 -1.204191,0.78033 -2.406216,1.73548 -3.478153,2.76383 -1.470196,1.41041 -1.800147,1.64763 -3.220322,2.31517 -1.421856,0.66834 -1.68055,0.73883 -2.551186,0.69558 z m -9.5582,-11.1287 c -2.690268,0.33761 -5.548906,-1.84724 -7.465597,-5.70593 -1.5678,-3.15629 -1.76727,-7.46129 -0.47435,-10.238 0.60714,-1.30387 1.03955,-1.6579 2.187957,-1.79125 1.243582,-0.1444 2.271389,0.17561 3.79354,1.18112 1.673439,1.10545 2.356297,1.98515 3.946739,5.08451 2.524078,4.91875 2.895859,6.41599 2.066336,8.32148 -0.746533,1.71487 -2.31057,2.92921 -4.054625,3.14807 z m 30.659825,-12.89762 c -0.973283,0.2296 -2.490963,-0.0314 -3.485564,-0.59938 -1.343318,-0.76716 -1.981003,-1.69621 -2.938551,-4.28122 -1.412216,-3.81242 -2.021081,-5.83907 -2.086894,-6.94632 -0.179588,-3.02154 1.432193,-6.02023 3.380209,-6.2888 1.541156,-0.21247 4.709604,1.86925 6.6462,4.36668 1.598617,2.06157 2.743836,5.60938 2.666847,8.26174 -0.03629,1.25041 -0.787056,3.34633 -1.423498,3.97399 -0.649279,0.64033 -1.849811,1.29888 -2.758749,1.51331 z m -14.369384,-6.33825 c -0.472967,0.0606 -1.085157,0.0269 -1.360435,-0.0747 -0.927866,-0.34278 -2.253313,-1.44789 -3.200763,-2.66866 -3.063964,-3.94788 -5.466959,-14.47334 -4.00328,-17.53495 0.116824,-0.24437 0.524017,-0.61964 0.904873,-0.83395 1.495801,-0.84171 4.240225,-0.12878 6.191522,1.6084 1.487057,1.32388 3.075727,3.1514 3.913972,4.50242 0.872358,1.40601 2.218004,4.96462 2.467542,6.52552 0.705001,4.40995 -1.390434,8.0247 -4.913431,8.47596 z m -10.943936,4.49691 c -1.203806,0.29299 -1.64968,0.25301 -3.126417,-0.28034 -2.549286,-0.92072 -4.604776,-3.21709 -6.15449,-6.87573 -1.175565,-2.77551 -1.590608,-5.36794 -1.393143,-8.70341 0.150892,-2.54878 1.354887,-4.64845 3.088511,-5.38612 0.70907,-0.30114 0.87339,-0.29759 1.629509,0.0403 1.454657,0.64997 3.721749,3.15045 5.925079,6.53505 0.669485,1.02842 1.334965,2.34681 2.168012,4.29505 1.051013,2.45797 1.223337,2.98856 1.371935,4.22331 0.310667,2.58156 -0.01872,4.12009 -1.048796,4.89884 -0.923124,0.69789 -1.603927,1.04464 -2.4602,1.25306 z m -14.726832,-4.31778 c -0.76099,-1.79836 -0.99598,-4.28694 -0.53668,-5.68331 0.0934,-0.28392 0.17044,-0.57571 0.17124,-0.64842 0.004,-0.338 0.73261,-1.27497 0.89969,-1.15647 0.0985,0.0698 0.46755,1.05229 0.82028,2.18327 0.59932,1.9218 0.70072,2.13489 1.54959,3.25617 0.499574,0.6599 0.891843,1.24043 0.871714,1.29009 -0.02013,0.0497 -0.377037,0.13729 -0.793124,0.19479 -0.78173,0.10799 -2.13428,0.92627 -2.19647,1.3289 -0.0767,0.49654 -0.37528,0.20604 -0.7862,-0.76504 z m 34.696178,-13.71865 c -0.70076,-0.006 -2.197722,0.5923 -2.539341,1.01558 -0.138265,0.17129 -0.285184,0.29748 -0.32648,0.28043 -0.04127,-0.0171 -0.211659,-0.74153 -0.378579,-1.60991 -0.257477,-1.33952 -0.415592,-1.77593 -1.042885,-2.87848 -1.626898,-2.85947 -1.642301,-3.00643 -0.267249,-2.55041 1.67962,0.55703 3.348538,2.0713 4.537225,4.11681 0.803861,1.38328 0.806523,1.63316 0.01732,1.62599 z m -15.94687,-10.11492 c -0.787156,0.0258 -1.629393,0.34174 -2.252104,0.84495 -0.547683,0.44253 -0.547827,0.44231 -0.869974,-1.34624 -0.201876,-1.12081 -0.361102,-1.52738 -1.178014,-3.008 -1.198272,-2.17184 -1.283294,-2.38005 -1.017753,-2.49241 0.3105,-0.13139 2.452921,0.84221 3.150194,1.43158 1.207094,1.02028 3.397844,4.37126 2.948421,4.5099 -0.06909,0.0216 -0.420548,0.0485 -0.780738,0.0602 z m -14.820042,5.99256 c -0.128985,-0.15085 -0.384292,-0.83245 -0.567307,-1.51468 -0.566969,-2.11389 -0.537859,-3.80165 0.09533,-5.5271 0.2202,-0.60004 0.49905,-1.13274 0.619679,-1.18379 0.26595,-0.11254 0.679668,0.80084 1.049952,2.31805 0.237215,0.97191 1.061115,2.62655 1.953902,3.92413 l 0.313965,0.4563 -1.250938,0.43716 c -0.978355,0.3419 -1.313962,0.53126 -1.540217,0.86882 -0.365088,0.54475 -0.390426,0.55305 -0.674404,0.22109 z"
           id="path4"
           inkscape:connector-curvature="0" /></g><text
         xml:space="preserve"
         style="font-style:normal;font-variant:normal;font-weight:normal;font-stretch:normal;font-size:11.8844px;line-height:1.25;font-family:Arial;-inkscape-font-specification:Arial;letter-spacing:0px;word-spacing:0px;fill:#000000;fill-opacity:1;stroke:none;stroke-width:0.297109"
         x="112.84125"
         y="-631.19324"
         id="text4"
         transform="scale(1,-1)"><tspan
           sodipodi:role="line"
           id="tspan4"
           style="font-style:normal;font-variant:normal;font-weight:normal;font-stretch:normal;font-family:Oxanium;-inkscape-font-specification:Oxanium;stroke-width:0.297109"
           x="112.84125"
           y="-631.19324">pawprintprototyping.org</tspan></text></g><g
       id="g13"
       transform="translate(251.99999,-132.78017)"><g
         id="g12"
         transform="matrix(0.74054821,0,0,-0.74054821,89.903081,473.84716)"><text
           xml:space="preserve"
           style="font-style:normal;font-variant:normal;font-weight:800;font-stretch:normal;font-size:26.9547px;line-height:1.25;font-family:'open sans';-inkscape-font-specification:'open sans, Ultra-Bold';font-variant-ligatures:normal;font-variant-caps:normal;font-variant-numeric:normal;font-feature-settings:normal;text-align:start;letter-spacing:0px;word-spacing:0px;writing-mode:lr-tb;text-anchor:start;fill:#000000;fill-opacity:1;stroke:none;stroke-width:0.673868"
           x="68.620575"
           y="-296.6893"
           id="text10"><tspan
             sodipodi:role="line"
             id="tspan10"
             x="68.620575"
             y="-296.6893"
             style="font-style:normal;font-variant:normal;font-weight:800;font-stretch:normal;font-size:26.9547px;font-family:'open sans';-inkscape-font-specification:'open sans, Ultra-Bold';font-variant-ligatures:normal;font-variant-caps:normal;font-variant-numeric:normal;font-feature-settings:normal;text-align:start;writing-mode:lr-tb;text-anchor:start;stroke-width:0.673868">PAWPRINT</tspan></text><text
           xml:space="preserve"
           style="font-style:normal;font-variant:normal;font-weight:bold;font-stretch:normal;font-size:21.4417px;line-height:1.25;font-family:Oxanium;-inkscape-font-specification:'Oxanium, Bold';font-variant-ligatures:normal;font-variant-caps:normal;font-variant-numeric:normal;font-feature-settings:normal;text-align:start;letter-spacing:0px;word-spacing:0px;writing-mode:lr-tb;text-anchor:start;fill:#000000;fill-opacity:1;stroke:none;stroke-width:0.536041"
           x="68.941872"
           y="-276.6525"
           id="text11"><tspan
             sodipodi:role="line"
             id="tspan11"
             x="68.941872"
             y="-276.6525"
             style="font-style:normal;font-variant:normal;font-weight:bold;font-stretch:normal;font-size:21.4417px;font-family:Oxanium;-inkscape-font-specification:'Oxanium, Bold';font-variant-ligatures:normal;font-variant-caps:normal;font-variant-numeric:normal;font-feature-settings:normal;text-align:start;writing-mode:lr-tb;text-anchor:start;stroke-width:0.536041">PROTOTYPING</tspan></text><path
           style="fill:#ff0000;fill-opacity:1;stroke-width:0.989237"
           d="m 868.85352,350.625 c 13.64809,19.90146 20.57268,40.62319 20.47265,61.46484 C 888.52574,525.9497 682.81734,617.22964 429.86523,615.96875 263.31991,615.04186 110.30263,573.4945 30.259766,507.4668 99.024315,586.24716 267.20404,638.57657 454.73633,639.54492 c 252.95115,1.26025 459.08437,-104.9804 459.88476,-218.83984 0.04,-21.45818 -6.43684,-48.40614 -20.83398,-70.08008 z"
           id="path11"
           transform="matrix(0.26458333,0,0,0.26458333,-3.337409,-408.7801)"
           inkscape:connector-curvature="0" /><path
           style="fill:#000000;stroke-width:0.174704"
           d="m 38.296712,-267.9632 c -1.311947,-0.0652 -2.566809,-0.60623 -3.651926,-1.57447 -0.817601,-0.72954 -0.951704,-0.93485 -1.407638,-2.15503 -0.456986,-1.22287 -0.493337,-1.52273 -0.39026,-3.21494 0.06253,-1.02644 0.238103,-2.25788 0.390185,-2.73653 0.286358,-0.90128 2.671704,-5.31021 3.579932,-6.61694 0.756286,-1.08813 1.483305,-2.83873 2.181561,-5.25306 0.645724,-2.23267 1.220842,-3.27583 2.265424,-4.10903 1.363066,-1.08725 3.644084,-0.82318 6.245903,0.72307 1.742555,1.0356 3.538016,1.67035 6.726938,2.37821 4.515454,1.00231 7.006692,2.20508 8.873588,4.28417 1.440701,1.60446 1.908125,3.78392 1.225301,5.71326 -0.607993,1.71794 -1.438109,2.59196 -3.145745,3.31211 -1.128845,0.47659 -1.627624,0.58002 -3.192352,0.66512 -3.269067,0.17778 -4.691082,0.39346 -6.672907,1.01206 -1.762086,0.55002 -2.105426,0.71335 -3.778343,1.79742 -1.204191,0.78033 -2.406216,1.73548 -3.478153,2.76383 -1.470196,1.41041 -1.800147,1.64763 -3.220322,2.31517 -1.421856,0.66834 -1.68055,0.73883 -2.551186,0.69558 z m -9.5582,-11.1287 c -2.690268,0.33761 -5.548906,-1.84724 -7.465597,-5.70593 -1.5678,-3.15629 -1.76727,-7.46129 -0.47435,-10.238 0.60714,-1.30387 1.03955,-1.6579 2.187957,-1.79125 1.243582,-0.1444 2.271389,0.17561 3.79354,1.18112 1.673439,1.10545 2.356297,1.98515 3.946739,5.08451 2.524078,4.91875 2.895859,6.41599 2.066336,8.32148 -0.746533,1.71487 -2.31057,2.92921 -4.054625,3.14807 z m 30.659825,-12.89762 c -0.973283,0.2296 -2.490963,-0.0314 -3.485564,-0.59938 -1.343318,-0.76716 -1.981003,-1.69621 -2.938551,-4.28122 -1.412216,-3.81242 -2.021081,-5.83907 -2.086894,-6.94632 -0.179588,-3.02154 1.432193,-6.02023 3.380209,-6.2888 1.541156,-0.21247 4.709604,1.86925 6.6462,4.36668 1.598617,2.06157 2.743836,5.60938 2.666847,8.26174 -0.03629,1.25041 -0.787056,3.34633 -1.423498,3.97399 -0.649279,0.64033 -1.849811,1.29888 -2.758749,1.51331 z m -14.369384,-6.33825 c -0.472967,0.0606 -1.085157,0.0269 -1.360435,-0.0747 -0.927866,-0.34278 -2.253313,-1.44789 -3.200763,-2.66866 -3.063964,-3.94788 -5.466959,-14.47334 -4.00328,-17.53495 0.116824,-0.24437 0.524017,-0.61964 0.904873,-0.83395 1.495801,-0.84171 4.240225,-0.12878 6.191522,1.6084 1.487057,1.32388 3.075727,3.1514 3.913972,4.50242 0.872358,1.40601 2.218004,4.96462 2.467542,6.52552 0.705001,4.40995 -1.390434,8.0247 -4.913431,8.47596 z m -10.943936,4.49691 c -1.203806,0.29299 -1.64968,0.25301 -3.126417,-0.28034 -2.549286,-0.92072 -4.604776,-3.21709 -6.15449,-6.87573 -1.175565,-2.77551 -1.590608,-5.36794 -1.393143,-8.70341 0.150892,-2.54878 1.354887,-4.64845 3.088511,-5.38612 0.70907,-0.30114 0.87339,-0.29759 1.629509,0.0403 1.454657,0.64997 3.721749,3.15045 5.925079,6.53505 0.669485,1.02842 1.334965,2.34681 2.168012,4.29505 1.051013,2.45797 1.223337,2.98856 1.371935,4.22331 0.310667,2.58156 -0.01872,4.12009 -1.048796,4.89884 -0.923124,0.69789 -1.603927,1.04464 -2.4602,1.25306 z m -14.726832,-4.31778 c -0.76099,-1.79836 -0.99598,-4.28694 -0.53668,-5.68331 0.0934,-0.28392 0.17044,-0.57571 0.17124,-0.64842 0.004,-0.338 0.73261,-1.27497 0.89969,-1.15647 0.0985,0.0698 0.46755,1.05229 0.82028,2.18327 0.59932,1.9218 0.70072,2.13489 1.54959,3.25617 0.499574,0.6599 0.891843,1.24043 0.871714,1.29009 -0.02013,0.0497 -0.377037,0.13729 -0.793124,0.19479 -0.78173,0.10799 -2.13428,0.92627 -2.19647,1.3289 -0.0767,0.49654 -0.37528,0.20604 -0.7862,-0.76504 z m 34.696178,-13.71865 c -0.70076,-0.006 -2.197722,0.5923 -2.539341,1.01558 -0.138265,0.17129 -0.285184,0.29748 -0.32648,0.28043 -0.04127,-0.0171 -0.211659,-0.74153 -0.378579,-1.60991 -0.257477,-1.33952 -0.415592,-1.77593 -1.042885,-2.87848 -1.626898,-2.85947 -1.642301,-3.00643 -0.267249,-2.55041 1.67962,0.55703 3.348538,2.0713 4.537225,4.11681 0.803861,1.38328 0.806523,1.63316 0.01732,1.62599 z m -15.94687,-10.11492 c -0.787156,0.0258 -1.629393,0.34174 -2.252104,0.84495 -0.547683,0.44253 -0.547827,0.44231 -0.869974,-1.34624 -0.201876,-1.12081 -0.361102,-1.52738 -1.178014,-3.008 -1.198272,-2.17184 -1.283294,-2.38005 -1.017753,-2.49241 0.3105,-0.13139 2.452921,0.84221 3.150194,1.43158 1.207094,1.02028 3.397844,4.37126 2.948421,4.5099 -0.06909,0.0216 -0.420548,0.0485 -0.780738,0.0602 z m -14.820042,5.99256 c -0.128985,-0.15085 -0.384292,-0.83245 -0.567307,-1.51468 -0.566969,-2.11389 -0.537859,-3.80165 0.09533,-5.5271 0.2202,-0.60004 0.49905,-1.13274 0.619679,-1.18379 0.26595,-0.11254 0.679668,0.80084 1.049952,2.31805 0.237215,0.97191 1.061115,2.62655 1.953902,3.92413 l 0.313965,0.4563 -1.250938,0.43716 c -0.978355,0.3419 -1.313962,0.53126 -1.540217,0.86882 -0.365088,0.54475 -0.390426,0.55305 -0.674404,0.22109 z"
           id="path12"
           inkscape:connector-curvature="0" /></g><text
         xml:space="preserve"
         style="font-style:normal;font-variant:normal;font-weight:normal;font-stretch:normal;font-size:11.8844px;line-height:1.25;font-family:Arial;-inkscape-font-specification:Arial;letter-spacing:0px;word-spacing:0px;fill:#000000;fill-opacity:1;stroke:none;stroke-width:0.297109"
         x="112.84125"
         y="-631.19324"
         id="text12"
         transform="scale(1,-1)"><tspan
           sodipodi:role="line"
           id="tspan12"
           style="font-style:normal;font-variant:normal;font-weight:normal;font-stretch:normal;font-family:Oxanium;-inkscape-font-specification:Oxanium;stroke-width:0.297109"
           x="112.84125"
           y="-631.19324">pawprintprototyping.org</tspan></text></g><g
       id="g16"
       transform="translate(-1.0582413e-5,-132.78017)"><g
         id="g15"
         transform="matrix(0.74054821,0,0,-0.74054821,89.903081,473.84716)"><text
           xml:space="preserve"
           style="font-style:normal;font-variant:normal;font-weight:800;font-stretch:normal;font-size:26.9547px;line-height:1.25;font-family:'open sans';-inkscape-font-specification:'open sans, Ultra-Bold';font-variant-ligatures:normal;font-variant-caps:normal;font-variant-numeric:normal;font-feature-settings:normal;text-align:start;letter-spacing:0px;word-spacing:0px;writing-mode:lr-tb;text-anchor:start;fill:#000000;fill-opacity:1;stroke:none;stroke-width:0.673868"
           x="68.620575"
           y="-296.6893"
           id="text13"><tspan
             sodipodi:role="line"
             id="tspan13"
             x="68.620575"
             y="-296.6893"
             style="font-style:normal;font-variant:normal;font-weight:800;font-stretch:normal;font-size:26.9547px;font-family:'open sans';-inkscape-font-specification:'open sans, Ultra-Bold';font-variant-ligatures:normal;font-variant-caps:normal;font-variant-numeric:normal;font-feature-settings:normal;text-align:start;writing-mode:lr-tb;text-anchor:start;stroke-width:0.673868">PAWPRINT</tspan></text><text
           xml:space="preserve"
           style="font-style:normal;font-variant:normal;font-weight:bold;font-stretch:normal;font-size:21.4417px;line-height:1.25;font-family:Oxanium;-inkscape-font-specification:'Oxanium, Bold';font-variant-ligatures:normal;font-variant-caps:normal;font-variant-numeric:normal;font-feature-settings:normal;text-align:start;letter-spacing:0px;word-spacing:0px;writing-mode:lr-tb;text-anchor:start;fill:#000000;fill-opacity:1;stroke:none;stroke-width:0.536041"
           x="68.941872"
           y="-276.6525"
           id="text14"><tspan
             sodipodi:role="line"
             id="tspan14"
             x="68.941872"
             y="-276.6525"
             style="font-style:normal;font-variant:normal;font-weight:bold;font-stretch:normal;font-size:21.4417px;font-family:Oxanium;-inkscape-font-specification:'Oxanium, Bold';font-variant-ligatures:normal;font-variant-caps:normal;font-variant-numeric:normal;font-feature-settings:normal;text-align:start;writing-mode:lr-tb;text-anchor:start;stroke-width:0.536041">PROTOTYPING</tspan></text><path
           style="fill:#ff0000;fill-opacity:1;stroke-width:0.989237"
           d="m 868.85352,350.625 c 13.64809,19.90146 20.57268,40.62319 20.47265,61.46484 C 888.52574,525.9497 682.81734,617.22964 429.86523,615.96875 263.31991,615.04186 110.30263,573.4945 30.259766,507.4668 99.024315,586.24716 267.20404,638.57657 454.73633,639.54492 c 252.95115,1.26025 459.08437,-104.9804 459.88476,-218.83984 0.04,-21.45818 -6.43684,-48.40614 -20.83398,-70.08008 z"
           id="path14"
           transform="matrix(0.26458333,0,0,0.26458333,-3.337409,-408.7801)"
           inkscape:connector-curvature="0" /><path
           style="fill:#000000;stroke-width:0.174704"
           d="m 38.296712,-267.9632 c -1.311947,-0.0652 -2.566809,-0.60623 -3.651926,-1.57447 -0.817601,-0.72954 -0.951704,-0.93485 -1.407638,-2.15503 -0.456986,-1.22287 -0.493337,-1.52273 -0.39026,-3.21494 0.06253,-1.02644 0.238103,-2.25788 0.390185,-2.73653 0.286358,-0.90128 2.671704,-5.31021 3.579932,-6.61694 0.756286,-1.08813 1.483305,-2.83873 2.181561,-5.25306 0.645724,-2.23267 1.220842,-3.27583 2.265424,-4.10903 1.363066,-1.08725 3.644084,-0.82318 6.245903,0.72307 1.742555,1.0356 3.538016,1.67035 6.726938,2.37821 4.515454,1.00231 7.006692,2.20508 8.873588,4.28417 1.440701,1.60446 1.908125,3.78392 1.225301,5.71326 -0.607993,1.71794 -1.438109,2.59196 -3.145745,3.31211 -1.128845,0.47659 -1.627624,0.58002 -3.192352,0.66512 -3.269067,0.17778 -4.691082,0.39346 -6.672907,1.01206 -1.762086,0.55002 -2.105426,0.71335 -3.778343,1.79742 -1.204191,0.78033 -2.406216,1.73548 -3.478153,2.76383 -1.470196,1.41041 -1.800147,1.64763 -3.220322,2.31517 -1.421856,0.66834 -1.68055,0.73883 -2.551186,0.69558 z m -9.5582,-11.1287 c -2.690268,0.33761 -5.548906,-1.84724 -7.465597,-5.70593 -1.5678,-3.15629 -1.76727,-7.46129 -0.47435,-10.238 0.60714,-1.30387 1.03955,-1.6579 2.187957,-1.79125 1.243582,-0.1444 2.271389,0.17561 3.79354,1.18112 1.673439,1.10545 2.356297,1.98515 3.946739,5.08451 2.524078,4.91875 2.895859,6.41599 2.066336,8.32148 -0.746533,1.71487 -2.31057,2.92921 -4.054625,3.14807 z m 30.659825,-12.89762 c -0.973283,0.2296 -2.490963,-0.0314 -3.485564,-0.59938 -1.343318,-0.76716 -1.981003,-1.69621 -2.938551,-4.28122 -1.412216,-3.81242 -2.021081,-5.83907 -2.086894,-6.94632 -0.179588,-3.02154 1.432193,-6.02023 3.380209,-6.2888 1.541156,-0.21247 4.709604,1.86925 6.6462,4.36668 1.598617,2.06157 2.743836,5.60938 2.666847,8.26174 -0.03629,1.25041 -0.787056,3.34633 -1.423498,3.97399 -0.649279,0.64033 -1.849811,1.29888 -2.758749,1.51331 z m -14.369384,-6.33825 c -0.472967,0.0606 -1.085157,0.0269 -1.360435,-0.0747 -0.927866,-0.34278 -2.253313,-1.44789 -3.200763,-2.66866 -3.063964,-3.94788 -5.466959,-14.47334 -4.00328,-17.53495 0.116824,-0.24437 0.524017,-0.61964 0.904873,-0.83395 1.495801,-0.84171 4.240225,-0.12878 6.191522,1.6084 1.487057,1.32388 3.075727,3.1514 3.913972,4.50242 0.872358,1.40601 2.218004,4.96462 2.467542,6.52552 0.705001,4.40995 -1.390434,8.0247 -4.913431,8.47596 z m -10.943936,4.49691 c -1.203806,0.29299 -1.64968,0.25301 -3.126417,-0.28034 -2.549286,-0.92072 -4.604776,-3.21709 -6.15449,-6.87573 -1.175565,-2.77551 -1.590608,-5.36794 -1.393143,-8.70341 0.150892,-2.54878 1.354887,-4.64845 3.088511,-5.38612 0.70907,-0.30114 0.87339,-0.29759 1.629509,0.0403 1.454657,0.64997 3.721749,3.15045 5.925079,6.53505 0.669485,1.02842 1.334965,2.34681 2.168012,4.29505 1.051013,2.45797 1.223337,2.98856 1.371935,4.22331 0.310667,2.58156 -0.01872,4.12009 -1.048796,4.89884 -0.923124,0.69789 -1.603927,1.04464 -2.4602,1.25306 z m -14.726832,-4.31778 c -0.76099,-1.79836 -0.99598,-4.28694 -0.53668,-5.68331 0.0934,-0.28392 0.17044,-0.57571 0.17124,-0.64842 0.004,-0.338 0.73261,-1.27497 0.89969,-1.15647 0.0985,0.0698 0.46755,1.05229 0.82028,2.18327 0.59932,1.9218 0.70072,2.13489 1.54959,3.25617 0.499574,0.6599 0.891843,1.24043 0.871714,1.29009 -0.02013,0.0497 -0.377037,0.13729 -0.793124,0.19479 -0.78173,0.10799 -2.13428,0.92627 -2.19647,1.3289 -0.0767,0.49654 -0.37528,0.20604 -0.7862,-0.76504 z m 34.696178,-13.71865 c -0.70076,-0.006 -2.197722,0.5923 -2.539341,1.01558 -0.138265,0.17129 -0.285184,0.29748 -0.32648,0.28043 -0.04127,-0.0171 -0.211659,-0.74153 -0.378579,-1.60991 -0.257477,-1.33952 -0.415592,-1.77593 -1.042885,-2.87848 -1.626898,-2.85947 -1.642301,-3.00643 -0.267249,-2.55041 1.67962,0.55703 3.348538,2.0713 4.537225,4.11681 0.803861,1.38328 0.806523,1.63316 0.01732,1.62599 z m -15.94687,-10.11492 c -0.787156,0.0258 -1.629393,0.34174 -2.252104,0.84495 -0.547683,0.44253 -0.547827,0.44231 -0.869974,-1.34624 -0.201876,-1.12081 -0.361102,-1.52738 -1.178014,-3.008 -1.198272,-2.17184 -1.283294,-2.38005 -1.017753,-2.49241 0.3105,-0.13139 2.452921,0.84221 3.150194,1.43158 1.207094,1.02028 3.397844,4.37126 2.948421,4.5099 -0.06909,0.0216 -0.420548,0.0485 -0.780738,0.0602 z m -14.820042,5.99256 c -0.128985,-0.15085 -0.384292,-0.83245 -0.567307,-1.51468 -0.566969,-2.11389 -0.537859,-3.80165 0.09533,-5.5271 0.2202,-0.60004 0.49905,-1.13274 0.619679,-1.18379 0.26595,-0.11254 0.679668,0.80084 1.049952,2.31805 0.237215,0.97191 1.061115,2.62655 1.953902,3.92413 l 0.313965,0.4563 -1.250938,0.43716 c -0.978355,0.3419 -1.313962,0.53126 -1.540217,0.86882 -0.365088,0.54475 -0.390426,0.55305 -0.674404,0.22109 z"
           id="path15"
           inkscape:connector-curvature="0" /></g><text
         xml:space="preserve"
         style="font-style:normal;font-variant:normal;font-weight:normal;font-stretch:normal;font-size:11.8844px;line-height:1.25;font-family:Arial;-inkscape-font-specification:Arial;letter-spacing:0px;word-spacing:0px;fill:#000000;fill-opacity:1;stroke:none;stroke-width:0.297109"
         x="112.84125"
         y="-631.19324"
         id="text15"
         transform="scale(1,-1)"><tspan
           sodipodi:role="line"
           id="tspan15"
           style="font-style:normal;font-variant:normal;font-weight:normal;font-stretch:normal;font-family:Oxanium;-inkscape-font-specification:Oxanium;stroke-width:0.297109"
           x="112.84125"
           y="-631.19324">pawprintprototyping.org</tspan></text></g><g
       id="g19"
       transform="translate(-1.0582413e-5,-276.78017)"><g
         id="g18"
         transform="matrix(0.74054821,0,0,-0.74054821,89.903081,473.84716)"><text
           xml:space="preserve"
           style="font-style:normal;font-variant:normal;font-weight:800;font-stretch:normal;font-size:26.9547px;line-height:1.25;font-family:'open sans';-inkscape-font-specification:'open sans, Ultra-Bold';font-variant-ligatures:normal;font-variant-caps:normal;font-variant-numeric:normal;font-feature-settings:normal;text-align:start;letter-spacing:0px;word-spacing:0px;writing-mode:lr-tb;text-anchor:start;fill:#000000;fill-opacity:1;stroke:none;stroke-width:0.673868"
           x="68.620575"
           y="-296.6893"
           id="text16"><tspan
             sodipodi:role="line"
             id="tspan16"
             x="68.620575"
             y="-296.6893"
             style="font-style:normal;font-variant:normal;font-weight:800;font-stretch:normal;font-size:26.9547px;font-family:'open sans';-inkscape-font-specification:'open sans, Ultra-Bold';font-variant-ligatures:normal;font-variant-caps:normal;font-variant-numeric:normal;font-feature-settings:normal;text-align:start;writing-mode:lr-tb;text-anchor:start;stroke-width:0.673868">PAWPRINT</tspan></text><text
           xml:space="preserve"
           style="font-style:normal;font-variant:normal;font-weight:bold;font-stretch:normal;font-size:21.4417px;line-height:1.25;font-family:Oxanium;-inkscape-font-specification:'Oxanium, Bold';font-variant-ligatures:normal;font-variant-caps:normal;font-variant-numeric:normal;font-feature-settings:normal;text-align:start;letter-spacing:0px;word-spacing:0px;writing-mode:lr-tb;text-anchor:start;fill:#000000;fill-opacity:1;stroke:none;stroke-width:0.536041"
           x="68.941872"
           y="-276.6525"
           id="text17"><tspan
             sodipodi:role="line"
             id="tspan17"
             x="68.941872"
             y="-276.6525"
             style="font-style:normal;font-variant:normal;font-weight:bold;font-stretch:normal;font-size:21.4417px;font-family:Oxanium;-inkscape-font-specification:'Oxanium, Bold';font-variant-ligatures:normal;font-variant-caps:normal;font-variant-numeric:normal;font-feature-settings:normal;text-align:start;writing-mode:lr-tb;text-anchor:start;stroke-width:0.536041">PROTOTYPING</tspan></text><path
           style="fill:#ff0000;fill-opacity:1;stroke-width:0.989237"
           d="m 868.85352,350.625 c 13.64809,19.90146 20.57268,40.62319 20.47265,61.46484 C 888.52574,525.9497 682.81734,617.22964 429.86523,615.96875 263.31991,615.04186 110.30263,573.4945 30.259766,507.4668 99.024315,586.24716 267.20404,638.57657 454.73633,639.54492 c 252.95115,1.26025 459.08437,-104.9804 459.88476,-218.83984 0.04,-21.45818 -6.43684,-48.40614 -20.83398,-70.08008 z"
           id="path17"
           transform="matrix(0.26458333,0,0,0.26458333,-3.337409,-408.7801)"
           inkscape:connector-curvature="0" /><path
           style="fill:#000000;stroke-width:0.174704"
           d="m 38.296712,-267.9632 c -1.311947,-0.0652 -2.566809,-0.60623 -3.651926,-1.57447 -0.817601,-0.72954 -0.951704,-0.93485 -1.407638,-2.15503 -0.456986,-1.22287 -0.493337,-1.52273 -0.39026,-3.21494 0.06253,-1.02644 0.238103,-2.25788 0.390185,-2.73653 0.286358,-0.90128 2.671704,-5.31021 3.579932,-6.61694 0.756286,-1.08813 1.483305,-2.83873 2.181561,-5.25306 0.645724,-2.23267 1.220842,-3.27583 2.265424,-4.10903 1.363066,-1.08725 3.644084,-0.82318 6.245903,0.72307 1.742555,1.0356 3.538016,1.67035 6.726938,2.37821 4.515454,1.00231 7.006692,2.20508 8.873588,4.28417 1.440701,1.60446 1.908125,3.78392 1.225301,5.71326 -0.607993,1.71794 -1.438109,2.59196 -3.145745,3.31211 -1.128845,0.47659 -1.627624,0.58002 -3.192352,0.66512 -3.269067,0.17778 -4.691082,0.39346 -6.672907,1.01206 -1.762086,0.55002 -2.105426,0.71335 -3.778343,1.79742 -1.204191,0.78033 -2.406216,1.73548 -3.478153,2.76383 -1.470196,1.41041 -1.800147,1.64763 -3.220322,2.31517 -1.421856,0.66834 -1.68055,0.73883 -2.551186,0.69558 z m -9.5582,-11.1287 c -2.690268,0.33761 -5.548906,-1.84724 -7.465597,-5.70593 -1.5678,-3.15629 -1.76727,-7.46129 -0.47435,-10.238 0.60714,-1.30387 1.03955,-1.6579 2.187957,-1.79125 1.243582,-0.1444 2.271389,0.17561 3.79354,1.18112 1.673439,1.10545 2.356297,1.98515 3.946739,5.08451 2.524078,4.91875 2.895859,6.41599 2.066336,8.32148 -0.746533,1.71487 -2.31057,2.92921 -4.054625,3.14807 z m 30.659825,-12.89762 c -0.973283,0.2296 -2.490963,-0.0314 -3.485564,-0.59938 -1.343318,-0.76716 -1.981003,-1.69621 -2.938551,-4.28122 -1.412216,-3.81242 -2.021081,-5.83907 -2.086894,-6.94632 -0.179588,-3.02154 1.432193,-6.02023 3.380209,-6.2888 1.541156,-0.21247 4.709604,1.86925 6.6462,4.36668 1.598617,2.06157 2.743836,5.60938 2.666847,8.26174 -0.03629,1.25041 -0.787056,3.34633 -1.423498,3.97399 -0.649279,0.64033 -1.849811,1.29888 -2.758749,1.51331 z m -14.369384,-6.33825 c -0.472967,0.0606 -1.085157,0.0269 -1.360435,-0.0747 -0.927866,-0.34278 -2.253313,-1.44789 -3.200763,-2.66866 -3.063964,-3.94788 -5.466959,-14.47334 -4.00328,-17.53495 0.116824,-0.24437 0.524017,-0.61964 0.904873,-0.83395 1.495801,-0.84171 4.240225,-0.12878 6.191522,1.6084 1.487057,1.32388 3.075727,3.1514 3.913972,4.50242 0.872358,1.40601 2.218004,4.96462 2.467542,6.52552 0.705001,4.40995 -1.390434,8.0247 -4.913431,8.47596 z m -10.943936,4.49691 c -1.203806,0.29299 -1.64968,0.25301 -3.126417,-0.28034 -2.549286,-0.92072 -4.604776,-3.21709 -6.15449,-6.87573 -1.175565,-2.77551 -1.590608,-5.36794 -1.393143,-8.70341 0.150892,-2.54878 1.354887,-4.64845 3.088511,-5.38612 0.70907,-0.30114 0.87339,-0.29759 1.629509,0.0403 1.454657,0.64997 3.721749,3.15045 5.925079,6.53505 0.669485,1.02842 1.334965,2.34681 2.168012,4.29505 1.051013,2.45797 1.223337,2.98856 1.371935,4.22331 0.310667,2.58156 -0.01872,4.12009 -1.048796,4.89884 -0.923124,0.69789 -1.603927,1.04464 -2.4602,1.25306 z m -14.726832,-4.31778 c -0.76099,-1.79836 -0.99598,-4.28694 -0.53668,-5.68331 0.0934,-0.28392 0.17044,-0.57571 0.17124,-0.64842 0.004,-0.338 0.73261,-1.27497 0.89969,-1.15647 0.0985,0.0698 0.46755,1.05229 0.82028,2.18327 0.59932,1.9218 0.70072,2.13489 1.54959,3.25617 0.499574,0.6599 0.891843,1.24043 0.871714,1.29009 -0.02013,0.0497 -0.377037,0.13729 -0.793124,0.19479 -0.78173,0.10799 -2.13428,0.92627 -2.19647,1.3289 -0.0767,0.49654 -0.37528,0.20604 -0.7862,-0.76504 z m 34.696178,-13.71865 c -0.70076,-0.006 -2.197722,0.5923 -2.539341,1.01558 -0.138265,0.17129 -0.285184,0.29748 -0.32648,0.28043 -0.04127,-0.0171 -0.211659,-0.74153 -0.378579,-1.60991 -0.257477,-1.33952 -0.415592,-1.77593 -1.042885,-2.87848 -1.626898,-2.85947 -1.642301,-3.00643 -0.267249,-2.55041 1.67962,0.55703 3.348538,2.0713 4.537225,4.11681 0.803861,1.38328 0.806523,1.63316 0.01732,1.62599 z m -15.94687,-10.11492 c -0.787156,0.0258 -1.629393,0.34174 -2.252104,0.84495 -0.547683,0.44253 -0.547827,0.44231 -0.869974,-1.34624 -0.201876,-1.12081 -0.361102,-1.52738 -1.178014,-3.008 -1.198272,-2.17184 -1.283294,-2.38005 -1.017753,-2.49241 0.3105,-0.13139 2.452921,0.84221 3.150194,1.43158 1.207094,1.02028 3.397844,4.37126 2.948421,4.5099 -0.06909,0.0216 -0.420548,0.0485 -0.780738,0.0602 z m -14.820042,5.99256 c -0.128985,-0.15085 -0.384292,-0.83245 -0.567307,-1.51468 -0.566969,-2.11389 -0.537859,-3.80165 0.09533,-5.5271 0.2202,-0.60004 0.49905,-1.13274 0.619679,-1.18379 0.26595,-0.11254 0.679668,0.80084 1.049952,2.31805 0.237215,0.97191 1.061115,2.62655 1.953902,3.92413 l 0.313965,0.4563 -1.250938,0.43716 c -0.978355,0.3419 -1.313962,0.53126 -1.540217,0.86882 -0.365088,0.54475 -0.390426,0.55305 -0.674404,0.22109 z"
           id="path18"
           inkscape:connector-curvature="0" /></g><text
         xml:space="preserve"
         style="font-style:normal;font-variant:normal;font-weight:normal;font-stretch:normal;font-size:11.8844px;line-height:1.25;font-family:Arial;-inkscape-font-specification:Arial;letter-spacing:0px;word-spacing:0px;fill:#000000;fill-opacity:1;stroke:none;stroke-width:0.297109"
         x="112.84125"
         y="-631.19324"
         id="text18"
         transform="scale(1,-1)"><tspan
           sodipodi:role="line"
           id="tspan18"
           style="font-style:normal;font-variant:normal;font-weight:normal;font-stretch:normal;font-family:Oxanium;-inkscape-font-specification:Oxanium;stroke-width:0.297109"
           x="112.84125"
           y="-631.19324">pawprintprototyping.org</tspan></text></g><g
       id="g22"
       transform="translate(251.99999,-276.78017)"><g
         id="g21"
         transform="matrix(0.74054821,0,0,-0.74054821,89.903081,473.84716)"><text
           xml:space="preserve"
           style="font-style:normal;font-variant:normal;font-weight:800;font-stretch:normal;font-size:26.9547px;line-height:1.25;font-family:'open sans';-inkscape-font-specification:'open sans, Ultra-Bold';font-variant-ligatures:normal;font-variant-caps:normal;font-variant-numeric:normal;font-feature-settings:normal;text-align:start;letter-spacing:0px;word-spacing:0px;writing-mode:lr-tb;text-anchor:start;fill:#000000;fill-opacity:1;stroke:none;stroke-width:0.673868"
           x="68.620575"
           y="-296.6893"
           id="text19"><tspan
             sodipodi:role="line"
             id="tspan19"
             x="68.620575"
             y="-296.6893"
             style="font-style:normal;font-variant:normal;font-weight:800;font-stretch:normal;font-size:26.9547px;font-family:'open sans';-inkscape-font-specification:'open sans, Ultra-Bold';font-variant-ligatures:normal;font-variant-caps:normal;font-variant-numeric:normal;font-feature-settings:normal;text-align:start;writing-mode:lr-tb;text-anchor:start;stroke-width:0.673868">PAWPRINT</tspan></text><text
           xml:space="preserve"
           style="font-style:normal;font-variant:normal;font-weight:bold;font-stretch:normal;font-size:21.4417px;line-height:1.25;font-family:Oxanium;-inkscape-font-specification:'Oxanium, Bold';font-variant-ligatures:normal;font-variant-caps:normal;font-variant-numeric:normal;font-feature-settings:normal;text-align:start;letter-spacing:0px;word-spacing:0px;writing-mode:lr-tb;text-anchor:start;fill:#000000;fill-opacity:1;stroke:none;stroke-width:0.536041"
           x="68.941872"
           y="-276.6525"
           id="text20"><tspan
             sodipodi:role="line"
             id="tspan20"
             x="68.941872"
             y="-276.6525"
             style="font-style:normal;font-variant:normal;font-weight:bold;font-stretch:normal;font-size:21.4417px;font-family:Oxanium;-inkscape-font-specification:'Oxanium, Bold';font-variant-ligatures:normal;font-variant-caps:normal;font-variant-numeric:normal;font-feature-settings:normal;text-align:start;writing-mode:lr-tb;text-anchor:start;stroke-width:0.536041">PROTOTYPING</tspan></text><path
           style="fill:#ff0000;fill-opacity:1;stroke-width:0.989237"
           d="m 868.85352,350.625 c 13.64809,19.90146 20.57268,40.62319 20.47265,61.46484 C 888.52574,525.9497 682.81734,617.22964 429.86523,615.96875 263.31991,615.04186 110.30263,573.4945 30.259766,507.4668 99.024315,586.24716 267.20404,638.57657 454.73633,639.54492 c 252.95115,1.26025 459.08437,-104.9804 459.88476,-218.83984 0.04,-21.45818 -6.43684,-48.40614 -20.83398,-70.08008 z"
           id="path20"
           transform="matrix(0.26458333,0,0,0.26458333,-3.337409,-408.7801)"
           inkscape:connector-curvature="0" /><path
           style="fill:#000000;stroke-width:0.174704"
           d="m 38.296712,-267.9632 c -1.311947,-0.0652 -2.566809,-0.60623 -3.651926,-1.57447 -0.817601,-0.72954 -0.951704,-0.93485 -1.407638,-2.15503 -0.456986,-1.22287 -0.493337,-1.52273 -0.39026,-3.21494 0.06253,-1.02644 0.238103,-2.25788 0.390185,-2.73653 0.286358,-0.90128 2.671704,-5.31021 3.579932,-6.61694 0.756286,-1.08813 1.483305,-2.83873 2.181561,-5.25306 0.645724,-2.23267 1.220842,-3.27583 2.265424,-4.10903 1.363066,-1.08725 3.644084,-0.82318 6.245903,0.72307 1.742555,1.0356 3.538016,1.67035 6.726938,2.37821 4.515454,1.00231 7.006692,2.20508 8.873588,4.28417 1.440701,1.60446 1.908125,3.78392 1.225301,5.71326 -0.607993,1.71794 -1.438109,2.59196 -3.145745,3.31211 -1.128845,0.47659 -1.627624,0.58002 -3.192352,0.66512 -3.269067,0.17778 -4.691082,0.39346 -6.672907,1.01206 -1.762086,0.55002 -2.105426,0.71335 -3.778343,1.79742 -1.204191,0.78033 -2.406216,1.73548 -3.478153,2.76383 -1.470196,1.41041 -1.800147,1.64763 -3.220322,2.31517 -1.421856,0.66834 -1.68055,0.73883 -2.551186,0.69558 z m -9.5582,-11.1287 c -2.690268,0.33761 -5.548906,-1.84724 -7.465597,-5.70593 -1.5678,-3.15629 -1.76727,-7.46129 -0.47435,-10.238 0.60714,-1.30387 1.03955,-1.6579 2.187957,-1.79125 1.243582,-0.1444 2.271389,0.17561 3.79354,1.18112 1.673439,1.10545 2.356297,1.98515 3.946739,5.08451 2.524078,4.91875 2.895859,6.41599 2.066336,8.32148 -0.746533,1.71487 -2.31057,2.92921 -4.054625,3.14807 z m 30.659825,-12.89762 c -0.973283,0.2296 -2.490963,-0.0314 -3.485564,-0.59938 -1.343318,-0.76716 -1.981003,-1.69621 -2.938551,-4.28122 -1.412216,-3.81242 -2.021081,-5.83907 -2.086894,-6.94632 -0.179588,-3.02154 1.432193,-6.02023 3.380209,-6.2888 1.541156,-0.21247 4.709604,1.86925 6.6462,4.36668 1.598617,2.06157 2.743836,5.60938 2.666847,8.26174 -0.03629,1.25041 -0.787056,3.34633 -1.423498,3.97399 -0.649279,0.64033 -1.849811,1.29888 -2.758749,1.51331 z m -14.369384,-6.33825 c -0.472967,0.0606 -1.085157,0.0269 -1.360435,-0.0747 -0.927866,-0.34278 -2.253313,-1.44789 -3.200763,-2.66866 -3.063964,-3.94788 -5.466959,-14.47334 -4.00328,-17.53495 0.116824,-0.24437 0.524017,-0.61964 0.904873,-0.83395 1.495801,-0.84171 4.240225,-0.12878 6.191522,1.6084 1.487057,1.32388 3.075727,3.1514 3.913972,4.50242 0.872358,1.40601 2.218004,4.96462 2.467542,6.52552 0.705001,4.40995 -1.390434,8.0247 -4.913431,8.47596 z m -10.943936,4.49691 c -1.203806,0.29299 -1.64968,0.25301 -3.126417,-0.28034 -2.549286,-0.92072 -4.604776,-3.21709 -6.15449,-6.87573 -1.175565,-2.77551 -1.590608,-5.36794 -1.393143,-8.70341 0.150892,-2.54878 1.354887,-4.64845 3.088511,-5.38612 0.70907,-0.30114 0.87339,-0.29759 1.629509,0.0403 1.454657,0.64997 3.721749,3.15045 5.925079,6.53505 0.669485,1.02842 1.334965,2.34681 2.168012,4.29505 1.051013,2.45797 1.223337,2.98856 1.371935,4.22331 0.310667,2.58156 -0.01872,4.12009 -1.048796,4.89884 -0.923124,0.69789 -1.603927,1.04464 -2.4602,1.25306 z m -14.726832,-4.31778 c -0.76099,-1.79836 -0.99598,-4.28694 -0.53668,-5.68331 0.0934,-0.28392 0.17044,-0.57571 0.17124,-0.64842 0.004,-0.338 0.73261,-1.27497 0.89969,-1.15647 0.0985,0.0698 0.46755,1.05229 0.82028,2.18327 0.59932,1.9218 0.70072,2.13489 1.54959,3.25617 0.499574,0.6599 0.891843,1.24043 0.871714,1.29009 -0.02013,0.0497 -0.377037,0.13729 -0.793124,0.19479 -0.78173,0.10799 -2.13428,0.92627 -2.19647,1.3289 -0.0767,0.49654 -0.37528,0.20604 -0.7862,-0.76504 z m 34.696178,-13.71865 c -0.70076,-0.006 -2.197722,0.5923 -2.539341,1.01558 -0.138265,0.17129 -0.285184,0.29748 -0.32648,0.28043 -0.04127,-0.0171 -0.211659,-0.74153 -0.378579,-1.60991 -0.257477,-1.33952 -0.415592,-1.77593 -1.042885,-2.87848 -1.626898,-2.85947 -1.642301,-3.00643 -0.267249,-2.55041 1.67962,0.55703 3.348538,2.0713 4.537225,4.11681 0.803861,1.38328 0.806523,1.63316 0.01732,1.62599 z m -15.94687,-10.11492 c -0.787156,0.0258 -1.629393,0.34174 -2.252104,0.84495 -0.547683,0.44253 -0.547827,0.44231 -0.869974,-1.34624 -0.201876,-1.12081 -0.361102,-1.52738 -1.178014,-3.008 -1.198272,-2.17184 -1.283294,-2.38005 -1.017753,-2.49241 0.3105,-0.13139 2.452921,0.84221 3.150194,1.43158 1.207094,1.02028 3.397844,4.37126 2.948421,4.5099 -0.06909,0.0216 -0.420548,0.0485 -0.780738,0.0602 z m -14.820042,5.99256 c -0.128985,-0.15085 -0.384292,-0.83245 -0.567307,-1.51468 -0.566969,-2.11389 -0.537859,-3.80165 0.09533,-5.5271 0.2202,-0.60004 0.49905,-1.13274 0.619679,-1.18379 0.26595,-0.11254 0.679668,0.80084 1.049952,2.31805 0.237215,0.97191 1.061115,2.62655 1.953902,3.92413 l 0.313965,0.4563 -1.250938,0.43716 c -0.978355,0.3419 -1.313962,0.53126 -1.540217,0.86882 -0.365088,0.54475 -0.390426,0.55305 -0.674404,0.22109 z"
           id="path21"
           inkscape:connector-curvature="0" /></g><text
         xml:space="preserve"
         style="font-style:normal;font-variant:normal;font-weight:normal;font-stretch:normal;font-size:11.8844px;line-height:1.25;font-family:Arial;-inkscape-font-specification:Arial;letter-spacing:0px;word-spacing:0px;fill:#000000;fill-opacity:1;stroke:none;stroke-width:0.297109"
         x="112.84125"
         y="-631.19324"
         id="text21"
         transform="scale(1,-1)"><tspan
           sodipodi:role="line"
           id="tspan21"
           style="font-style:normal;font-variant:normal;font-weight:normal;font-stretch:normal;font-family:Oxanium;-inkscape-font-specification:Oxanium;stroke-width:0.297109"
           x="112.84125"
           y="-631.19324">pawprintprototyping.org</tspan></text></g><g
       id="g25"
       transform="translate(251.99999,-420.78017)"><g
         id="g24"
         transform="matrix(0.74054821,0,0,-0.74054821,89.903081,473.84716)"><text
           xml:space="preserve"
           style="font-style:normal;font-variant:normal;font-weight:800;font-stretch:normal;font-size:26.9547px;line-height:1.25;font-family:'open sans';-inkscape-font-specification:'open sans, Ultra-Bold';font-variant-ligatures:normal;font-variant-caps:normal;font-variant-numeric:normal;font-feature-settings:normal;text-align:start;letter-spacing:0px;word-spacing:0px;writing-mode:lr-tb;text-anchor:start;fill:#000000;fill-opacity:1;stroke:none;stroke-width:0.673868"
           x="68.620575"
           y="-296.6893"
           id="text22"><tspan
             sodipodi:role="line"
             id="tspan22"
             x="68.620575"
             y="-296.6893"
             style="font-style:normal;font-variant:normal;font-weight:800;font-stretch:normal;font-size:26.9547px;font-family:'open sans';-inkscape-font-specification:'open sans, Ultra-Bold';font-variant-ligatures:normal;font-variant-caps:normal;font-variant-numeric:normal;font-feature-settings:normal;text-align:start;writing-mode:lr-tb;text-anchor:start;stroke-width:0.673868">PAWPRINT</tspan></text><text
           xml:space="preserve"
           style="font-style:normal;font-variant:normal;font-weight:bold;font-stretch:normal;font-size:21.4417px;line-height:1.25;font-family:Oxanium;-inkscape-font-specification:'Oxanium, Bold';font-variant-ligatures:normal;font-variant-caps:normal;font-variant-numeric:normal;font-feature-settings:normal;text-align:start;letter-spacing:0px;word-spacing:0px;writing-mode:lr-tb;text-anchor:start;fill:#000000;fill-opacity:1;stroke:none;stroke-width:0.536041"
           x="68.941872"
           y="-276.6525"
           id="text23"><tspan
             sodipodi:role="line"
             id="tspan23"
             x="68.941872"
             y="-276.6525"
             style="font-style:normal;font-variant:normal;font-weight:bold;font-stretch:normal;font-size:21.4417px;font-family:Oxanium;-inkscape-font-specification:'Oxanium, Bold';font-variant-ligatures:normal;font-variant-caps:normal;font-variant-numeric:normal;font-feature-settings:normal;text-align:start;writing-mode:lr-tb;text-anchor:start;stroke-width:0.536041">PROTOTYPING</tspan></text><path
           style="fill:#ff0000;fill-opacity:1;stroke-width:0.989237"
           d="m 868.85352,350.625 c 13.64809,19.90146 20.57268,40.62319 20.47265,61.46484 C 888.52574,525.9497 682.81734,617.22964 429.86523,615.96875 263.31991,615.04186 110.30263,573.4945 30.259766,507.4668 99.024315,586.24716 267.20404,638.57657 454.73633,639.54492 c 252.95115,1.26025 459.08437,-104.9804 459.88476,-218.83984 0.04,-21.45818 -6.43684,-48.40614 -20.83398,-70.08008 z"
           id="path23"
           transform="matrix(0.26458333,0,0,0.26458333,-3.337409,-408.7801)"
           inkscape:connector-curvature="0" /><path
           style="fill:#000000;stroke-width:0.174704"
           d="m 38.296712,-267.9632 c -1.311947,-0.0652 -2.566809,-0.60623 -3.651926,-1.57447 -0.817601,-0.72954 -0.951704,-0.93485 -1.407638,-2.15503 -0.456986,-1.22287 -0.493337,-1.52273 -0.39026,-3.21494 0.06253,-1.02644 0.238103,-2.25788 0.390185,-2.73653 0.286358,-0.90128 2.671704,-5.31021 3.579932,-6.61694 0.756286,-1.08813 1.483305,-2.83873 2.181561,-5.25306 0.645724,-2.23267 1.220842,-3.27583 2.265424,-4.10903 1.363066,-1.08725 3.644084,-0.82318 6.245903,0.72307 1.742555,1.0356 3.538016,1.67035 6.726938,2.37821 4.515454,1.00231 7.006692,2.20508 8.873588,4.28417 1.440701,1.60446 1.908125,3.78392 1.225301,5.71326 -0.607993,1.71794 -1.438109,2.59196 -3.145745,3.31211 -1.128845,0.47659 -1.627624,0.58002 -3.192352,0.66512 -3.269067,0.17778 -4.691082,0.39346 -6.672907,1.01206 -1.762086,0.55002 -2.105426,0.71335 -3.778343,1.79742 -1.204191,0.78033 -2.406216,1.73548 -3.478153,2.76383 -1.470196,1.41041 -1.800147,1.64763 -3.220322,2.31517 -1.421856,0.66834 -1.68055,0.73883 -2.551186,0.69558 z m -9.5582,-11.1287 c -2.690268,0.33761 -5.548906,-1.84724 -7.465597,-5.70593 -1.5678,-3.15629 -1.76727,-7.46129 -0.47435,-10.238 0.60714,-1.30387 1.03955,-1.6579 2.187957,-1.79125 1.243582,-0.1444 2.271389,0.17561 3.79354,1.18112 1.673439,1.10545 2.356297,1.98515 3.946739,5.08451 2.524078,4.91875 2.895859,6.41599 2.066336,8.32148 -0.746533,1.71487 -2.31057,2.92921 -4.054625,3.14807 z m 30.659825,-12.89762 c -0.973283,0.2296 -2.490963,-0.0314 -3.485564,-0.59938 -1.343318,-0.76716 -1.981003,-1.69621 -2.938551,-4.28122 -1.412216,-3.81242 -2.021081,-5.83907 -2.086894,-6.94632 -0.179588,-3.02154 1.432193,-6.02023 3.380209,-6.2888 1.541156,-0.21247 4.709604,1.86925 6.6462,4.36668 1.598617,2.06157 2.743836,5.60938 2.666847,8.26174 -0.03629,1.25041 -0.787056,3.34633 -1.423498,3.97399 -0.649279,0.64033 -1.849811,1.29888 -2.758749,1.51331 z m -14.369384,-6.33825 c -0.472967,0.0606 -1.085157,0.0269 -1.360435,-0.0747 -0.927866,-0.34278 -2.253313,-1.44789 -3.200763,-2.66866 -3.063964,-3.94788 -5.466959,-14.47334 -4.00328,-17.53495 0.116824,-0.24437 0.524017,-0.61964 0.904873,-0.83395 1.495801,-0.84171 4.240225,-0.12878 6.191522,1.6084 1.487057,1.32388 3.075727,3.1514 3.913972,4.50242 0.872358,1.40601 2.218004,4.96462 2.467542,6.52552 0.705001,4.40995 -1.390434,8.0247 -4.913431,8.47596 z m -10.943936,4.49691 c -1.203806,0.29299 -1.64968,0.25301 -3.126417,-0.28034 -2.549286,-0.92072 -4.604776,-3.21709 -6.15449,-6.87573 -1.175565,-2.77551 -1.590608,-5.36794 -1.393143,-8.70341 0.150892,-2.54878 1.354887,-4.64845 3.088511,-5.38612 0.70907,-0.30114 0.87339,-0.29759 1.629509,0.0403 1.454657,0.64997 3.721749,3.15045 5.925079,6.53505 0.669485,1.02842 1.334965,2.34681 2.168012,4.29505 1.051013,2.45797 1.223337,2.98856 1.371935,4.22331 0.310667,2.58156 -0.01872,4.12009 -1.048796,4.89884 -0.923124,0.69789 -1.603927,1.04464 -2.4602,1.25306 z m -14.726832,-4.31778 c -0.76099,-1.79836 -0.99598,-4.28694 -0.53668,-5.68331 0.0934,-0.28392 0.17044,-0.57571 0.17124,-0.64842 0.004,-0.338 0.73261,-1.27497 0.89969,-1.15647 0.0985,0.0698 0.46755,1.05229 0.82028,2.18327 0.59932,1.9218 0.70072,2.13489 1.54959,3.25617 0.499574,0.6599 0.891843,1.24043 0.871714,1.29009 -0.02013,0.0497 -0.377037,0.13729 -0.793124,0.19479 -0.78173,0.10799 -2.13428,0.92627 -2.19647,1.3289 -0.0767,0.49654 -0.37528,0.20604 -0.7862,-0.76504 z m 34.696178,-13.71865 c -0.70076,-0.006 -2.197722,0.5923 -2.539341,1.01558 -0.138265,0.17129 -0.285184,0.29748 -0.32648,0.28043 -0.04127,-0.0171 -0.211659,-0.74153 -0.378579,-1.60991 -0.257477,-1.33952 -0.415592,-1.77593 -1.042885,-2.87848 -1.626898,-2.85947 -1.642301,-3.00643 -0.267249,-2.55041 1.67962,0.55703 3.348538,2.0713 4.537225,4.11681 0.803861,1.38328 0.806523,1.63316 0.01732,1.62599 z m -15.94687,-10.11492 c -0.787156,0.0258 -1.629393,0.34174 -2.252104,0.84495 -0.547683,0.44253 -0.547827,0.44231 -0.869974,-1.34624 -0.201876,-1.12081 -0.361102,-1.52738 -1.178014,-3.008 -1.198272,-2.17184 -1.283294,-2.38005 -1.017753,-2.49241 0.3105,-0.13139 2.452921,0.84221 3.150194,1.43158 1.207094,1.02028 3.397844,4.37126 2.948421,4.5099 -0.06909,0.0216 -0.420548,0.0485 -0.780738,0.0602 z m -14.820042,5.99256 c -0.128985,-0.15085 -0.384292,-0.83245 -0.567307,-1.51468 -0.566969,-2.11389 -0.537859,-3.80165 0.09533,-5.5271 0.2202,-0.60004 0.49905,-1.13274 0.619679,-1.18379 0.26595,-0.11254 0.679668,0.80084 1.049952,2.31805 0.237215,0.97191 1.061115,2.62655 1.953902,3.92413 l 0.313965,0.4563 -1.250938,0.43716 c -0.978355,0.3419 -1.313962,0.53126 -1.540217,0.86882 -0.365088,0.54475 -0.390426,0.55305 -0.674404,0.22109 z"
           id="path24"
           inkscape:connector-curvature="0" /></g><text
         xml:space="preserve"
         style="font-style:normal;font-variant:normal;font-weight:normal;font-stretch:normal;font-size:11.8844px;line-height:1.25;font-family:Arial;-inkscape-font-specification:Arial;letter-spacing:0px;word-spacing:0px;fill:#000000;fill-opacity:1;stroke:none;stroke-width:0.297109"
         x="112.84125"
         y="-631.19324"
         id="text24"
         transform="scale(1,-1)"><tspan
           sodipodi:role="line"
           id="tspan24"
           style="font-style:normal;font-variant:normal;font-weight:normal;font-stretch:normal;font-family:Oxanium;-inkscape-font-specification:Oxanium;stroke-width:0.297109"
           x="112.84125"
           y="-631.19324">pawprintprototyping.org</tspan></text></g><g
       id="g28"
       transform="translate(251.99999,-564.78017)"><g
         id="g27"
         transform="matrix(0.74054821,0,0,-0.74054821,89.903081,473.84716)"><text
           xml:space="preserve"
           style="font-style:normal;font-variant:normal;font-weight:800;font-stretch:normal;font-size:26.9547px;line-height:1.25;font-family:'open sans';-inkscape-font-specification:'open sans, Ultra-Bold';font-variant-ligatures:normal;font-variant-caps:normal;font-variant-numeric:normal;font-feature-settings:normal;text-align:start;letter-spacing:0px;word-spacing:0px;writing-mode:lr-tb;text-anchor:start;fill:#000000;fill-opacity:1;stroke:none;stroke-width:0.673868"
           x="68.620575"
           y="-296.6893"
           id="text25"><tspan
             sodipodi:role="line"
             id="tspan25"
             x="68.620575"
             y="-296.6893"
             style="font-style:normal;font-variant:normal;font-weight:800;font-stretch:normal;font-size:26.9547px;font-family:'open sans';-inkscape-font-specification:'open sans, Ultra-Bold';font-variant-ligatures:normal;font-variant-caps:normal;font-variant-numeric:normal;font-feature-settings:normal;text-align:start;writing-mode:lr-tb;text-anchor:start;stroke-width:0.673868">PAWPRINT</tspan></text><text
           xml:space="preserve"
           style="font-style:normal;font-variant:normal;font-weight:bold;font-stretch:normal;font-size:21.4417px;line-height:1.25;font-family:Oxanium;-inkscape-font-specification:'Oxanium, Bold';font-variant-ligatures:normal;font-variant-caps:normal;font-variant-numeric:normal;font-feature-settings:normal;text-align:start;letter-spacing:0px;word-spacing:0px;writing-mode:lr-tb;text-anchor:start;fill:#000000;fill-opacity:1;stroke:none;stroke-width:0.536041"
           x="68.941872"
           y="-276.6525"
           id="text26"><tspan
             sodipodi:role="line"
             id="tspan26"
             x="68.941872"
             y="-276.6525"
             style="font-style:normal;font-variant:normal;font-weight:bold;font-stretch:normal;font-size:21.4417px;font-family:Oxanium;-inkscape-font-specification:'Oxanium, Bold';font-variant-ligatures:normal;font-variant-caps:normal;font-variant-numeric:normal;font-feature-settings:normal;text-align:start;writing-mode:lr-tb;text-anchor:start;stroke-width:0.536041">PROTOTYPING</tspan></text><path
           style="fill:#ff0000;fill-opacity:1;stroke-width:0.989237"
           d="m 868.85352,350.625 c 13.64809,19.90146 20.57268,40.62319 20.47265,61.46484 C 888.52574,525.9497 682.81734,617.22964 429.86523,615.96875 263.31991,615.04186 110.30263,573.4945 30.259766,507.4668 99.024315,586.24716 267.20404,638.57657 454.73633,639.54492 c 252.95115,1.26025 459.08437,-104.9804 459.88476,-218.83984 0.04,-21.45818 -6.43684,-48.40614 -20.83398,-70.08008 z"
           id="path26"
           transform="matrix(0.26458333,0,0,0.26458333,-3.337409,-408.7801)"
           inkscape:connector-curvature="0" /><path
           style="fill:#000000;stroke-width:0.174704"
           d="m 38.296712,-267.9632 c -1.311947,-0.0652 -2.566809,-0.60623 -3.651926,-1.57447 -0.817601,-0.72954 -0.951704,-0.93485 -1.407638,-2.15503 -0.456986,-1.22287 -0.493337,-1.52273 -0.39026,-3.21494 0.06253,-1.02644 0.238103,-2.25788 0.390185,-2.73653 0.286358,-0.90128 2.671704,-5.31021 3.579932,-6.61694 0.756286,-1.08813 1.483305,-2.83873 2.181561,-5.25306 0.645724,-2.23267 1.220842,-3.27583 2.265424,-4.10903 1.363066,-1.08725 3.644084,-0.82318 6.245903,0.72307 1.742555,1.0356 3.538016,1.67035 6.726938,2.37821 4.515454,1.00231 7.006692,2.20508 8.873588,4.28417 1.440701,1.60446 1.908125,3.78392 1.225301,5.71326 -0.607993,1.71794 -1.438109,2.59196 -3.145745,3.31211 -1.128845,0.47659 -1.627624,0.58002 -3.192352,0.66512 -3.269067,0.17778 -4.691082,0.39346 -6.672907,1.01206 -1.762086,0.55002 -2.105426,0.71335 -3.778343,1.79742 -1.204191,0.78033 -2.406216,1.73548 -3.478153,2.76383 -1.470196,1.41041 -1.800147,1.64763 -3.220322,2.31517 -1.421856,0.66834 -1.68055,0.73883 -2.551186,0.69558 z m -9.5582,-11.1287 c -2.690268,0.33761 -5.548906,-1.84724 -7.465597,-5.70593 -1.5678,-3.15629 -1.76727,-7.46129 -0.47435,-10.238 0.60714,-1.30387 1.03955,-1.6579 2.187957,-1.79125 1.243582,-0.1444 2.271389,0.17561 3.79354,1.18112 1.673439,1.10545 2.356297,1.98515 3.946739,5.08451 2.524078,4.91875 2.895859,6.41599 2.066336,8.32148 -0.746533,1.71487 -2.31057,2.92921 -4.054625,3.14807 z m 30.659825,-12.89762 c -0.973283,0.2296 -2.490963,-0.0314 -3.485564,-0.59938 -1.343318,-0.76716 -1.981003,-1.69621 -2.938551,-4.28122 -1.412216,-3.81242 -2.021081,-5.83907 -2.086894,-6.94632 -0.179588,-3.02154 1.432193,-6.02023 3.380209,-6.2888 1.541156,-0.21247 4.709604,1.86925 6.6462,4.36668 1.598617,2.06157 2.743836,5.60938 2.666847,8.26174 -0.03629,1.25041 -0.787056,3.34633 -1.423498,3.97399 -0.649279,0.64033 -1.849811,1.29888 -2.758749,1.51331 z m -14.369384,-6.33825 c -0.472967,0.0606 -1.085157,0.0269 -1.360435,-0.0747 -0.927866,-0.34278 -2.253313,-1.44789 -3.200763,-2.66866 -3.063964,-3.94788 -5.466959,-14.47334 -4.00328,-17.53495 0.116824,-0.24437 0.524017,-0.61964 0.904873,-0.83395 1.495801,-0.84171 4.240225,-0.12878 6.191522,1.6084 1.487057,1.32388 3.075727,3.1514 3.913972,4.50242 0.872358,1.40601 2.218004,4.96462 2.467542,6.52552 0.705001,4.40995 -1.390434,8.0247 -4.913431,8.47596 z m -10.943936,4.49691 c -1.203806,0.29299 -1.64968,0.25301 -3.126417,-0.28034 -2.549286,-0.92072 -4.604776,-3.21709 -6.15449,-6.87573 -1.175565,-2.77551 -1.590608,-5.36794 -1.393143,-8.70341 0.150892,-2.54878 1.354887,-4.64845 3.088511,-5.38612 0.70907,-0.30114 0.87339,-0.29759 1.629509,0.0403 1.454657,0.64997 3.721749,3.15045 5.925079,6.53505 0.669485,1.02842 1.334965,2.34681 2.168012,4.29505 1.051013,2.45797 1.223337,2.98856 1.371935,4.22331 0.310667,2.58156 -0.01872,4.12009 -1.048796,4.89884 -0.923124,0.69789 -1.603927,1.04464 -2.4602,1.25306 z m -14.726832,-4.31778 c -0.76099,-1.79836 -0.99598,-4.28694 -0.53668,-5.68331 0.0934,-0.28392 0.17044,-0.57571 0.17124,-0.64842 0.004,-0.338 0.73261,-1.27497 0.89969,-1.15647 0.0985,0.0698 0.46755,1.05229 0.82028,2.18327 0.59932,1.9218 0.70072,2.13489 1.54959,3.25617 0.499574,0.6599 0.891843,1.24043 0.871714,1.29009 -0.02013,0.0497 -0.377037,0.13729 -0.793124,0.19479 -0.78173,0.10799 -2.13428,0.92627 -2.19647,1.3289 -0.0767,0.49654 -0.37528,0.20604 -0.7862,-0.76504 z m 34.696178,-13.71865 c -0.70076,-0.006 -2.197722,0.5923 -2.539341,1.01558 -0.138265,0.17129 -0.285184,0.29748 -0.32648,0.28043 -0.04127,-0.0171 -0.211659,-0.74153 -0.378579,-1.60991 -0.257477,-1.33952 -0.415592,-1.77593 -1.042885,-2.87848 -1.626898,-2.85947 -1.642301,-3.00643 -0.267249,-2.55041 1.67962,0.55703 3.348538,2.0713 4.537225,4.11681 0.803861,1.38328 0.806523,1.63316 0.01732,1.62599 z m -15.94687,-10.11492 c -0.787156,0.0258 -1.629393,0.34174 -2.252104,0.84495 -0.547683,0.44253 -0.547827,0.44231 -0.869974,-1.34624 -0.201876,-1.12081 -0.361102,-1.52738 -1.178014,-3.008 -1.198272,-2.17184 -1.283294,-2.38005 -1.017753,-2.49241 0.3105,-0.13139 2.452921,0.84221 3.150194,1.43158 1.207094,1.02028 3.397844,4.37126 2.948421,4.5099 -0.06909,0.0216 -0.420548,0.0485 -0.780738,0.0602 z m -14.820042,5.99256 c -0.128985,-0.15085 -0.384292,-0.83245 -0.567307,-1.51468 -0.566969,-2.11389 -0.537859,-3.80165 0.09533,-5.5271 0.2202,-0.60004 0.49905,-1.13274 0.619679,-1.18379 0.26595,-0.11254 0.679668,0.80084 1.049952,2.31805 0.237215,0.97191 1.061115,2.62655 1.953902,3.92413 l 0.313965,0.4563 -1.250938,0.43716 c -0.978355,0.3419 -1.313962,0.53126 -1.540217,0.86882 -0.365088,0.54475 -0.390426,0.55305 -0.674404,0.22109 z"
           id="path27"
           inkscape:connector-curvature="0" /></g><text
         xml:space="preserve"
         style="font-style:normal;font-variant:normal;font-weight:normal;font-stretch:normal;font-size:11.8844px;line-height:1.25;font-family:Arial;-inkscape-font-specification:Arial;letter-spacing:0px;word-spacing:0px;fill:#000000;fill-opacity:1;stroke:none;stroke-width:0.297109"
         x="112.84125"
         y="-631.19324"
         id="text27"
         transform="scale(1,-1)"><tspan
           sodipodi:role="line"
           id="tspan27"
           style="font-style:normal;font-variant:normal;font-weight:normal;font-stretch:normal;font-family:Oxanium;-inkscape-font-specification:Oxanium;stroke-width:0.297109"
           x="112.84125"
           y="-631.19324">pawprintprototyping.org</tspan></text></g><g
       id="g31"
       transform="translate(-1.0582413e-5,-564.78017)"><g
         id="g30"
         transform="matrix(0.74054821,0,0,-0.74054821,89.903081,473.84716)"><text
           xml:space="preserve"
           style="font-style:normal;font-variant:normal;font-weight:800;font-stretch:normal;font-size:26.9547px;line-height:1.25;font-family:'open sans';-inkscape-font-specification:'open sans, Ultra-Bold';font-variant-ligatures:normal;font-variant-caps:normal;font-variant-numeric:normal;font-feature-settings:normal;text-align:start;letter-spacing:0px;word-spacing:0px;writing-mode:lr-tb;text-anchor:start;fill:#000000;fill-opacity:1;stroke:none;stroke-width:0.673868"
           x="68.620575"
           y="-296.6893"
           id="text28"><tspan
             sodipodi:role="line"
             id="tspan28"
             x="68.620575"
             y="-296.6893"
             style="font-style:normal;font-variant:normal;font-weight:800;font-stretch:normal;font-size:26.9547px;font-family:'open sans';-inkscape-font-specification:'open sans, Ultra-Bold';font-variant-ligatures:normal;font-variant-caps:normal;font-variant-numeric:normal;font-feature-settings:normal;text-align:start;writing-mode:lr-tb;text-anchor:start;stroke-width:0.673868">PAWPRINT</tspan></text><text
           xml:space="preserve"
           style="font-style:normal;font-variant:normal;font-weight:bold;font-stretch:normal;font-size:21.4417px;line-height:1.25;font-family:Oxanium;-inkscape-font-specification:'Oxanium, Bold';font-variant-ligatures:normal;font-variant-caps:normal;font-variant-numeric:normal;font-feature-settings:normal;text-align:start;letter-spacing:0px;word-spacing:0px;writing-mode:lr-tb;text-anchor:start;fill:#000000;fill-opacity:1;stroke:none;stroke-width:0.536041"
           x="68.941872"
           y="-276.6525"
           id="text29"><tspan
             sodipodi:role="line"
             id="tspan29"
             x="68.941872"
             y="-276.6525"
             style="font-style:normal;font-variant:normal;font-weight:bold;font-stretch:normal;font-size:21.4417px;font-family:Oxanium;-inkscape-font-specification:'Oxanium, Bold';font-variant-ligatures:normal;font-variant-caps:normal;font-variant-numeric:normal;font-feature-settings:normal;text-align:start;writing-mode:lr-tb;text-anchor:start;stroke-width:0.536041">PROTOTYPING</tspan></text><path
           style="fill:#ff0000;fill-opacity:1;stroke-width:0.989237"
           d="m 868.85352,350.625 c 13.64809,19.90146 20.57268,40.62319 20.47265,61.46484 C 888.52574,525.9497 682.81734,617.22964 429.86523,615.96875 263.31991,615.04186 110.30263,573.4945 30.259766,507.4668 99.024315,586.24716 267.20404,638.57657 454.73633,639.54492 c 252.95115,1.26025 459.08437,-104.9804 459.88476,-218.83984 0.04,-21.45818 -6.43684,-48.40614 -20.83398,-70.08008 z"
           id="path29"
           transform="matrix(0.26458333,0,0,0.26458333,-3.337409,-408.7801)"
           inkscape:connector-curvature="0" /><path
           style="fill:#000000;stroke-width:0.174704"
           d="m 38.296712,-267.9632 c -1.311947,-0.0652 -2.566809,-0.60623 -3.651926,-1.57447 -0.817601,-0.72954 -0.951704,-0.93485 -1.407638,-2.15503 -0.456986,-1.22287 -0.493337,-1.52273 -0.39026,-3.21494 0.06253,-1.02644 0.238103,-2.25788 0.390185,-2.73653 0.286358,-0.90128 2.671704,-5.31021 3.579932,-6.61694 0.756286,-1.08813 1.483305,-2.83873 2.181561,-5.25306 0.645724,-2.23267 1.220842,-3.27583 2.265424,-4.10903 1.363066,-1.08725 3.644084,-0.82318 6.245903,0.72307 1.742555,1.0356 3.538016,1.67035 6.726938,2.37821 4.515454,1.00231 7.006692,2.20508 8.873588,4.28417 1.440701,1.60446 1.908125,3.78392 1.225301,5.71326 -0.607993,1.71794 -1.438109,2.59196 -3.145745,3.31211 -1.128845,0.47659 -1.627624,0.58002 -3.192352,0.66512 -3.269067,0.17778 -4.691082,0.39346 -6.672907,1.01206 -1.762086,0.55002 -2.105426,0.71335 -3.778343,1.79742 -1.204191,0.78033 -2.406216,1.73548 -3.478153,2.76383 -1.470196,1.41041 -1.800147,1.64763 -3.220322,2.31517 -1.421856,0.66834 -1.68055,0.73883 -2.551186,0.69558 z m -9.5582,-11.1287 c -2.690268,0.33761 -5.548906,-1.84724 -7.465597,-5.70593 -1.5678,-3.15629 -1.76727,-7.46129 -0.47435,-10.238 0.60714,-1.30387 1.03955,-1.6579 2.187957,-1.79125 1.243582,-0.1444 2.271389,0.17561 3.79354,1.18112 1.673439,1.10545 2.356297,1.98515 3.946739,5.08451 2.524078,4.91875 2.895859,6.41599 2.066336,8.32148 -0.746533,1.71487 -2.31057,2.92921 -4.054625,3.14807 z m 30.659825,-12.89762 c -0.973283,0.2296 -2.490963,-0.0314 -3.485564,-0.59938 -1.343318,-0.76716 -1.981003,-1.69621 -2.938551,-4.28122 -1.412216,-3.81242 -2.021081,-5.83907 -2.086894,-6.94632 -0.179588,-3.02154 1.432193,-6.02023 3.380209,-6.2888 1.541156,-0.21247 4.709604,1.86925 6.6462,4.36668 1.598617,2.06157 2.743836,5.60938 2.666847,8.26174 -0.03629,1.25041 -0.787056,3.34633 -1.423498,3.97399 -0.649279,0.64033 -1.849811,1.29888 -2.758749,1.51331 z m -14.369384,-6.33825 c -0.472967,0.0606 -1.085157,0.0269 -1.360435,-0.0747 -0.927866,-0.34278 -2.253313,-1.44789 -3.200763,-2.66866 -3.063964,-3.94788 -5.466959,-14.47334 -4.00328,-17.53495 0.116824,-0.24437 0.524017,-0.61964 0.904873,-0.83395 1.495801,-0.84171 4.240225,-0.12878 6.191522,1.6084 1.487057,1.32388 3.075727,3.1514 3.913972,4.50242 0.872358,1.40601 2.218004,4.96462 2.467542,6.52552 0.705001,4.40995 -1.390434,8.0247 -4.913431,8.47596 z m -10.943936,4.49691 c -1.203806,0.29299 -1.64968,0.25301 -3.126417,-0.28034 -2.549286,-0.92072 -4.604776,-3.21709 -6.15449,-6.87573 -1.175565,-2.77551 -1.590608,-5.36794 -1.393143,-8.70341 0.150892,-2.54878 1.354887,-4.64845 3.088511,-5.38612 0.70907,-0.30114 0.87339,-0.29759 1.629509,0.0403 1.454657,0.64997 3.721749,3.15045 5.925079,6.53505 0.669485,1.02842 1.334965,2.34681 2.168012,4.29505 1.051013,2.45797 1.223337,2.98856 1.371935,4.22331 0.310667,2.58156 -0.01872,4.12009 -1.048796,4.89884 -0.923124,0.69789 -1.603927,1.04464 -2.4602,1.25306 z m -14.726832,-4.31778 c -0.76099,-1.79836 -0.99598,-4.28694 -0.53668,-5.68331 0.0934,-0.28392 0.17044,-0.57571 0.17124,-0.64842 0.004,-0.338 0.73261,-1.27497 0.89969,-1.15647 0.0985,0.0698 0.46755,1.05229 0.82028,2.18327 0.59932,1.9218 0.70072,2.13489 1.54959,3.25617 0.499574,0.6599 0.891843,1.24043 0.871714,1.29009 -0.02013,0.0497 -0.377037,0.13729 -0.793124,0.19479 -0.78173,0.10799 -2.13428,0.92627 -2.19647,1.3289 -0.0767,0.49654 -0.37528,0.20604 -0.7862,-0.76504 z m 34.696178,-13.71865 c -0.70076,-0.006 -2.197722,0.5923 -2.539341,1.01558 -0.138265,0.17129 -0.285184,0.29748 -0.32648,0.28043 -0.04127,-0.0171 -0.211659,-0.74153 -0.378579,-1.60991 -0.257477,-1.33952 -0.415592,-1.77593 -1.042885,-2.87848 -1.626898,-2.85947 -1.642301,-3.00643 -0.267249,-2.55041 1.67962,0.55703 3.348538,2.0713 4.537225,4.11681 0.803861,1.38328 0.806523,1.63316 0.01732,1.62599 z m -15.94687,-10.11492 c -0.787156,0.0258 -1.629393,0.34174 -2.252104,0.84495 -0.547683,0.44253 -0.547827,0.44231 -0.869974,-1.34624 -0.201876,-1.12081 -0.361102,-1.52738 -1.178014,-3.008 -1.198272,-2.17184 -1.283294,-2.38005 -1.017753,-2.49241 0.3105,-0.13139 2.452921,0.84221 3.150194,1.43158 1.207094,1.02028 3.397844,4.37126 2.948421,4.5099 -0.06909,0.0216 -0.420548,0.0485 -0.780738,0.0602 z m -14.820042,5.99256 c -0.128985,-0.15085 -0.384292,-0.83245 -0.567307,-1.51468 -0.566969,-2.11389 -0.537859,-3.80165 0.09533,-5.5271 0.2202,-0.60004 0.49905,-1.13274 0.619679,-1.18379 0.26595,-0.11254 0.679668,0.80084 1.049952,2.31805 0.237215,0.97191 1.061115,2.62655 1.953902,3.92413 l 0.313965,0.4563 -1.250938,0.43716 c -0.978355,0.3419 -1.313962,0.53126 -1.540217,0.86882 -0.365088,0.54475 -0.390426,0.55305 -0.674404,0.22109 z"
           id="path30"
           inkscape:connector-curvature="0" /></g><text
         xml:space="preserve"
         style="font-style:normal;font-variant:normal;font-weight:normal;font-stretch:normal;font-size:11.8844px;line-height:1.25;font-family:Arial;-inkscape-font-specification:Arial;letter-spacing:0px;word-spacing:0px;fill:#000000;fill-opacity:1;stroke:none;stroke-width:0.297109"
         x="112.84125"
         y="-631.19324"
         id="text30"
         transform="scale(1,-1)"><tspan
           sodipodi:role="line"
           id="tspan30"
           style="font-style:normal;font-variant:normal;font-weight:normal;font-stretch:normal;font-family:Oxanium;-inkscape-font-specification:Oxanium;stroke-width:0.297109"
           x="112.84125"
           y="-631.19324">pawprintprototyping.org</tspan></text></g><g
       id="g34"
       transform="translate(-1.0582413e-5,-420.78017)"><g
         id="g33"
         transform="matrix(0.74054821,0,0,-0.74054821,89.903081,473.84716)"><text
           xml:space="preserve"
           style="font-style:normal;font-variant:normal;font-weight:800;font-stretch:normal;font-size:26.9547px;line-height:1.25;font-family:'open sans';-inkscape-font-specification:'open sans, Ultra-Bold';font-variant-ligatures:normal;font-variant-caps:normal;font-variant-numeric:normal;font-feature-settings:normal;text-align:start;letter-spacing:0px;word-spacing:0px;writing-mode:lr-tb;text-anchor:start;fill:#000000;fill-opacity:1;stroke:none;stroke-width:0.673868"
           x="68.620575"
           y="-296.6893"
           id="text31"><tspan
             sodipodi:role="line"
             id="tspan31"
             x="68.620575"
             y="-296.6893"
             style="font-style:normal;font-variant:normal;font-weight:800;font-stretch:normal;font-size:26.9547px;font-family:'open sans';-inkscape-font-specification:'open sans, Ultra-Bold';font-variant-ligatures:normal;font-variant-caps:normal;font-variant-numeric:normal;font-feature-settings:normal;text-align:start;writing-mode:lr-tb;text-anchor:start;stroke-width:0.673868">PAWPRINT</tspan></text><text
           xml:space="preserve"
           style="font-style:normal;font-variant:normal;font-weight:bold;font-stretch:normal;font-size:21.4417px;line-height:1.25;font-family:Oxanium;-inkscape-font-specification:'Oxanium, Bold';font-variant-ligatures:normal;font-variant-caps:normal;font-variant-numeric:normal;font-feature-settings:normal;text-align:start;letter-spacing:0px;word-spacing:0px;writing-mode:lr-tb;text-anchor:start;fill:#000000;fill-opacity:1;stroke:none;stroke-width:0.536041"
           x="68.941872"
           y="-276.6525"
           id="text32"><tspan
             sodipodi:role="line"
             id="tspan32"
             x="68.941872"
             y="-276.6525"
             style="font-style:normal;font-variant:normal;font-weight:bold;font-stretch:normal;font-size:21.4417px;font-family:Oxanium;-inkscape-font-specification:'Oxanium, Bold';font-variant-ligatures:normal;font-variant-caps:normal;font-variant-numeric:normal;font-feature-settings:normal;text-align:start;writing-mode:lr-tb;text-anchor:start;stroke-width:0.536041">PROTOTYPING</tspan></text><path
           style="fill:#ff0000;fill-opacity:1;stroke-width:0.989237"
           d="m 868.85352,350.625 c 13.64809,19.90146 20.57268,40.62319 20.47265,61.46484 C 888.52574,525.9497 682.81734,617.22964 429.86523,615.96875 263.31991,615.04186 110.30263,573.4945 30.259766,507.4668 99.024315,586.24716 267.20404,638.57657 454.73633,639.54492 c 252.95115,1.26025 459.08437,-104.9804 459.88476,-218.83984 0.04,-21.45818 -6.43684,-48.40614 -20.83398,-70.08008 z"
           id="path32"
           transform="matrix(0.26458333,0,0,0.26458333,-3.337409,-408.7801)"
           inkscape:connector-curvature="0" /><path
           style="fill:#000000;stroke-width:0.174704"
           d="m 38.296712,-267.9632 c -1.311947,-0.0652 -2.566809,-0.60623 -3.651926,-1.57447 -0.817601,-0.72954 -0.951704,-0.93485 -1.407638,-2.15503 -0.456986,-1.22287 -0.493337,-1.52273 -0.39026,-3.21494 0.06253,-1.02644 0.238103,-2.25788 0.390185,-2.73653 0.286358,-0.90128 2.671704,-5.31021 3.579932,-6.61694 0.756286,-1.08813 1.483305,-2.83873 2.181561,-5.25306 0.645724,-2.23267 1.220842,-3.27583 2.265424,-4.10903 1.363066,-1.08725 3.644084,-0.82318 6.245903,0.72307 1.742555,1.0356 3.538016,1.67035 6.726938,2.37821 4.515454,1.00231 7.006692,2.20508 8.873588,4.28417 1.440701,1.60446 1.908125,3.78392 1.225301,5.71326 -0.607993,1.71794 -1.438109,2.59196 -3.145745,3.31211 -1.128845,0.47659 -1.627624,0.58002 -3.192352,0.66512 -3.269067,0.17778 -4.691082,0.39346 -6.672907,1.01206 -1.762086,0.55002 -2.105426,0.71335 -3.778343,1.79742 -1.204191,0.78033 -2.406216,1.73548 -3.478153,2.76383 -1.470196,1.41041 -1.800147,1.64763 -3.220322,2.31517 -1.421856,0.66834 -1.68055,0.73883 -2.551186,0.69558 z m -9.5582,-11.1287 c -2.690268,0.33761 -5.548906,-1.84724 -7.465597,-5.70593 -1.5678,-3.15629 -1.76727,-7.46129 -0.47435,-10.238 0.60714,-1.30387 1.03955,-1.6579 2.187957,-1.79125 1.243582,-0.1444 2.271389,0.17561 3.79354,1.18112 1.673439,1.10545 2.356297,1.98515 3.946739,5.08451 2.524078,4.91875 2.895859,6.41599 2.066336,8.32148 -0.746533,1.71487 -2.31057,2.92921 -4.054625,3.14807 z m 30.659825,-12.89762 c -0.973283,0.2296 -2.490963,-0.0314 -3.485564,-0.59938 -1.343318,-0.76716 -1.981003,-1.69621 -2.938551,-4.28122 -1.412216,-3.81242 -2.021081,-5.83907 -2.086894,-6.94632 -0.179588,-3.02154 1.432193,-6.02023 3.380209,-6.2888 1.541156,-0.21247 4.709604,1.86925 6.6462,4.36668 1.598617,2.06157 2.743836,5.60938 2.666847,8.26174 -0.03629,1.25041 -0.787056,3.34633 -1.423498,3.97399 -0.649279,0.64033 -1.849811,1.29888 -2.758749,1.51331 z m -14.369384,-6.33825 c -0.472967,0.0606 -1.085157,0.0269 -1.360435,-0.0747 -0.927866,-0.34278 -2.253313,-1.44789 -3.200763,-2.66866 -3.063964,-3.94788 -5.466959,-14.47334 -4.00328,-17.53495 0.116824,-0.24437 0.524017,-0.61964 0.904873,-0.83395 1.495801,-0.84171 4.240225,-0.12878 6.191522,1.6084 1.487057,1.32388 3.075727,3.1514 3.913972,4.50242 0.872358,1.40601 2.218004,4.96462 2.467542,6.52552 0.705001,4.40995 -1.390434,8.0247 -4.913431,8.47596 z m -10.943936,4.49691 c -1.203806,0.29299 -1.64968,0.25301 -3.126417,-0.28034 -2.549286,-0.92072 -4.604776,-3.21709 -6.15449,-6.87573 -1.175565,-2.77551 -1.590608,-5.36794 -1.393143,-8.70341 0.150892,-2.54878 1.354887,-4.64845 3.088511,-5.38612 0.70907,-0.30114 0.87339,-0.29759 1.629509,0.0403 1.454657,0.64997 3.721749,3.15045 5.925079,6.53505 0.669485,1.02842 1.334965,2.34681 2.168012,4.29505 1.051013,2.45797 1.223337,2.98856 1.371935,4.22331 0.310667,2.58156 -0.01872,4.12009 -1.048796,4.89884 -0.923124,0.69789 -1.603927,1.04464 -2.4602,1.25306 z m -14.726832,-4.31778 c -0.76099,-1.79836 -0.99598,-4.28694 -0.53668,-5.68331 0.0934,-0.28392 0.17044,-0.57571 0.17124,-0.64842 0.004,-0.338 0.73261,-1.27497 0.89969,-1.15647 0.0985,0.0698 0.46755,1.05229 0.82028,2.18327 0.59932,1.9218 0.70072,2.13489 1.54959,3.25617 0.499574,0.6599 0.891843,1.24043 0.871714,1.29009 -0.02013,0.0497 -0.377037,0.13729 -0.793124,0.19479 -0.78173,0.10799 -2.13428,0.92627 -2.19647,1.3289 -0.0767,0.49654 -0.37528,0.20604 -0.7862,-0.76504 z m 34.696178,-13.71865 c -0.70076,-0.006 -2.197722,0.5923 -2.539341,1.01558 -0.138265,0.17129 -0.285184,0.29748 -0.32648,0.28043 -0.04127,-0.0171 -0.211659,-0.74153 -0.378579,-1.60991 -0.257477,-1.33952 -0.415592,-1.77593 -1.042885,-2.87848 -1.626898,-2.85947 -1.642301,-3.00643 -0.267249,-2.55041 1.67962,0.55703 3.348538,2.0713 4.537225,4.11681 0.803861,1.38328 0.806523,1.63316 0.01732,1.62599 z m -15.94687,-10.11492 c -0.787156,0.0258 -1.629393,0.34174 -2.252104,0.84495 -0.547683,0.44253 -0.547827,0.44231 -0.869974,-1.34624 -0.201876,-1.12081 -0.361102,-1.52738 -1.178014,-3.008 -1.198272,-2.17184 -1.283294,-2.38005 -1.017753,-2.49241 0.3105,-0.13139 2.452921,0.84221 3.150194,1.43158 1.207094,1.02028 3.397844,4.37126 2.948421,4.5099 -0.06909,0.0216 -0.420548,0.0485 -0.780738,0.0602 z m -14.820042,5.99256 c -0.128985,-0.15085 -0.384292,-0.83245 -0.567307,-1.51468 -0.566969,-2.11389 -0.537859,-3.80165 0.09533,-5.5271 0.2202,-0.60004 0.49905,-1.13274 0.619679,-1.18379 0.26595,-0.11254 0.679668,0.80084 1.049952,2.31805 0.237215,0.97191 1.061115,2.62655 1.953902,3.92413 l 0.313965,0.4563 -1.250938,0.43716 c -0.978355,0.3419 -1.313962,0.53126 -1.540217,0.86882 -0.365088,0.54475 -0.390426,0.55305 -0.674404,0.22109 z"
           id="path33"
           inkscape:connector-curvature="0" /></g><text
         xml:space="preserve"
         style="font-style:normal;font-variant:normal;font-weight:normal;font-stretch:normal;font-size:11.8844px;line-height:1.25;font-family:Arial;-inkscape-font-specification:Arial;letter-spacing:0px;word-spacing:0px;fill:#000000;fill-opacity:1;stroke:none;stroke-width:0.297109"
         x="112.84125"
         y="-631.19324"
         id="text33"
         transform="scale(1,-1)"><tspan
           sodipodi:role="line"
           id="tspan33"
           style="font-style:normal;font-variant:normal;font-weight:normal;font-stretch:normal;font-family:Oxanium;-inkscape-font-specification:Oxanium;stroke-width:0.297109"
           x="112.84125"
           y="-631.19324">pawprintprototyping.org</tspan></text></g></g></svg>
