<?xml version="1.0" encoding="UTF-8" standalone="no"?>
<!-- Created with Inkscape (http://www.inkscape.org/) -->

<svg
   width="370mm"
   height="30mm"
   viewBox="0 0 370 30"
   version="1.1"
   id="svg5"
   inkscape:version="1.2.2 (b0a84865, 2022-12-01)"
   sodipodi:docname="Powered By Pawctogon Technology.svg"
   xmlns:inkscape="http://www.inkscape.org/namespaces/inkscape"
   xmlns:sodipodi="http://sodipodi.sourceforge.net/DTD/sodipodi-0.dtd"
   xmlns="http://www.w3.org/2000/svg"
   xmlns:svg="http://www.w3.org/2000/svg">
  <sodipodi:namedview
     id="namedview7"
     pagecolor="#ffffff"
     bordercolor="#000000"
     borderopacity="0.25"
     inkscape:showpageshadow="2"
     inkscape:pageopacity="0.0"
     inkscape:pagecheckerboard="0"
     inkscape:deskcolor="#d1d1d1"
     inkscape:document-units="mm"
     showgrid="false"
     inkscape:zoom="0.7358277"
     inkscape:cx="699.2126"
     inkscape:cy="57.078579"
     inkscape:window-width="1680"
     inkscape:window-height="908"
     inkscape:window-x="0"
     inkscape:window-y="25"
     inkscape:window-maximized="1"
     inkscape:current-layer="layer1" />
  <defs
     id="defs2" />
  <g
     inkscape:label="Layer 1"
     inkscape:groupmode="layer"
     id="layer1">
    <text
       xml:space="preserve"
       style="font-style:normal;font-variant:normal;font-weight:600;font-stretch:normal;font-size:11.2889px;font-family:'Kohinoor Bangla';-inkscape-font-specification:'Kohinoor Bangla, Semi-Bold';font-variant-ligatures:normal;font-variant-caps:normal;font-variant-numeric:normal;font-variant-east-asian:normal;text-align:center;text-anchor:middle;fill:#000000;stroke:#000000;stroke-width:4.50304;stroke-linecap:round"
       x="97.317177"
       y="22.322424"
       id="text236"><tspan
         sodipodi:role="line"
         id="tspan234"
         style="font-style:normal;font-variant:normal;font-weight:600;font-stretch:normal;font-size:11.2889px;font-family:'Kohinoor Bangla';-inkscape-font-specification:'Kohinoor Bangla, Semi-Bold';font-variant-ligatures:normal;font-variant-caps:normal;font-variant-numeric:normal;font-variant-east-asian:normal;fill:#000000;fill-opacity:1;stroke:none;stroke-width:4.50304"
         x="97.317177"
         y="22.322424">Powered By</tspan></text>
    <text
       xml:space="preserve"
       style="font-style:normal;font-variant:normal;font-weight:600;font-stretch:normal;font-size:11.2889px;font-family:'Kohinoor Bangla';-inkscape-font-specification:'Kohinoor Bangla, Semi-Bold';font-variant-ligatures:normal;font-variant-caps:normal;font-variant-numeric:normal;font-variant-east-asian:normal;text-align:center;text-anchor:middle;fill:#000000;stroke:#000000;stroke-width:5.08;stroke-linecap:round"
       x="272.52475"
       y="22.322424"
       id="text952"><tspan
         sodipodi:role="line"
         id="tspan950"
         style="font-style:normal;font-variant:normal;font-weight:600;font-stretch:normal;font-size:11.2889px;font-family:'Kohinoor Bangla';-inkscape-font-specification:'Kohinoor Bangla, Semi-Bold';font-variant-ligatures:normal;font-variant-caps:normal;font-variant-numeric:normal;font-variant-east-asian:normal;fill:#000000;fill-opacity:1;stroke:none;stroke-width:5.08"
         x="272.52475"
         y="22.322424">Technology</tspan></text>
    <g
       id="g1052"
       transform="matrix(2.0914693,0,0,2.0914693,-50.748596,-190.76149)">
      <path
         d="m 92.658733,100.36251 c 0.857957,-1.422398 0.632179,-2.957688 1.907824,-4.447823 l -0.778934,-0.666045 c -1.761068,2.05458 -1.140179,4.041426 -2.596447,5.226758 l 0.327378,0.92569 h 1.625602 l 0.338667,-1.03858 z m 4.21076,-5.000979 c -0.699912,-1.061157 -1.727202,-1.625602 -2.856092,-1.625602 -1.749779,0 -3.522137,1.388535 -3.522137,3.08187 0,0.609601 0.237067,1.185335 0.688623,1.682046 l 0.767646,-0.688623 c -0.31609,-0.349956 -0.41769,-0.688623 -0.41769,-0.982134 0,-1.072446 1.241779,-2.065869 2.460981,-2.065869 0.6096,0 1.377245,0.225778 2.032002,1.174046 0.112889,0.169333 0.169333,0.395111 0.169333,0.632178 0,0.508001 -0.282222,1.512713 -1.501424,1.512713 -0.169333,0 -0.372533,-0.03387 -0.587022,-0.09031 l -0.282223,1.004712 c 0.3048,0.06773 0.587023,0.112889 0.869245,0.112889 1.388535,0 2.528714,-1.095024 2.528714,-2.540003 0,-0.440267 -0.112889,-0.869245 -0.349956,-1.207913 z"
         style="font-size:11.2889px;font-family:HiFi;-inkscape-font-specification:'HiFi, Normal';text-align:center;text-anchor:middle;stroke-width:16.4852;stroke-linecap:round"
         id="path1015" />
      <path
         d="m 100.38033,100.38509 c 0.0564,-0.19191 0.16933,-0.553155 0.83538,-2.585157 h -1.06116 c -0.0564,0.180623 -0.1016,0.338667 -0.158044,0.496712 -0.124178,-0.316089 -0.4064,-0.496712 -0.733778,-0.496712 h -0.891824 c -0.508,0 -1.004712,0.383823 -1.174045,0.880535 0,0 -0.496712,1.512712 -0.508001,1.535292 -0.03387,0.11289 -0.04515,0.21449 -0.04515,0.32738 0,0.47413 0.372533,0.85795 0.869245,0.85795 h 1.727202 l 0.158044,-0.508 c 0.124178,0.31609 0.440268,0.49671 0.801521,0.49671 h 1.53529 l 0.32737,-1.00471 z m -1.049869,0 H 97.69357 c 0,0 0.428979,-1.309511 0.508001,-1.557867 h 1.625602 z"
         style="font-size:11.2889px;font-family:HiFi;-inkscape-font-specification:'HiFi, Normal';text-align:center;text-anchor:middle;stroke-width:16.4852;stroke-linecap:round"
         id="path1017" />
      <path
         d="m 106.99562,97.811222 c -0.19191,1.286935 -0.84667,2.065869 -1.76107,2.438398 l 0.79022,-2.438398 h -1.04986 c -0.37254,1.535291 -1.12889,2.144891 -1.86267,2.438398 l 0.80151,-2.438398 h -1.06116 l -1.18533,3.623738 h 0.53058 c 0.67733,0 1.17404,-0.14676 1.74978,-0.47413 -0.1016,0.29351 -0.15805,0.47413 -0.15805,0.47413 h 0.47414 c 1.64818,0 3.02542,-1.03858 3.556,-2.607737 0.14675,-0.327378 0.23707,-0.666045 0.28222,-1.016001 z"
         style="font-size:11.2889px;font-family:HiFi;-inkscape-font-specification:'HiFi, Normal';text-align:center;text-anchor:middle;stroke-width:16.4852;stroke-linecap:round"
         id="path1019" />
      <path
         d="m 109.4453,100.39638 c 0,0 0.42898,-1.309512 0.508,-1.557868 h 1.82881 c 0.0113,-0.06773 0.0226,-0.135467 0.0226,-0.214489 0,-0.496712 -0.37253,-0.812801 -0.80151,-0.812801 h -0.88053 c -0.49671,0 -1.016,0.383823 -1.17405,0.880534 l -0.0451,0.146756 c -0.36125,1.095023 -0.51929,1.591738 -0.51929,1.704628 0,0.49671 0.38382,0.86924 0.88053,0.86924 h 2.99156 l 0.32738,-1.016 z"
         style="font-size:11.2889px;font-family:HiFi;-inkscape-font-specification:'HiFi, Normal';text-align:center;text-anchor:middle;stroke-width:16.4852;stroke-linecap:round"
         id="path1021" />
      <path
         d="m 113.48672,100.39638 0.508,-1.546579 h 0.76764 l 0.33867,-1.038579 h -0.75636 l 0.4064,-1.185334 h -1.06115 c -0.14676,0.451556 -0.28223,0.846667 -0.4064,1.185334 h -0.74507 c -0.14676,0.41769 -0.25965,0.756357 -0.34996,1.038579 h 0.75636 c -0.16933,0.508001 -0.34996,1.151469 -0.48542,1.614309 l -0.0226,0.079 c -0.0113,0.0452 -0.0226,0.0903 -0.0226,0.13546 0,0.39511 0.45156,0.72249 0.89182,0.72249 h 2.00943 l 0.32738,-1.00471 z"
         style="font-size:11.2889px;font-family:HiFi;-inkscape-font-specification:'HiFi, Normal';text-align:center;text-anchor:middle;stroke-width:16.4852;stroke-linecap:round"
         id="path1023" />
      <path
         d="m 119.80849,98.307934 c -0.12418,-0.316089 -0.41769,-0.508001 -0.74507,-0.508001 h -1.69333 c -0.49671,0 -1.00472,0.395112 -1.16276,0.880535 l -0.508,1.546582 c -0.0452,0.11289 -0.0564,0.22577 -0.0564,0.32738 0,0.49671 0.38383,0.84666 0.86925,0.84666 h 1.6256 c 0.49671,0 0.99343,-0.39511 1.16276,-0.89182 l 0.55315,-1.670758 c 0.0113,-0.05644 0.0226,-0.124178 0.0226,-0.180622 0,-0.124178 -0.0226,-0.237067 -0.0677,-0.349956 z m -1.53529,2.133606 h -1.59174 c 0,0 0.44027,-1.365961 0.53058,-1.603028 h 1.59174 z"
         style="font-size:11.2889px;font-family:HiFi;-inkscape-font-specification:'HiFi, Normal';text-align:center;text-anchor:middle;stroke-width:16.4852;stroke-linecap:round"
         id="path1025" />
      <path
         d="m 123.90634,97.799933 -0.15804,0.496712 c -0.12418,-0.316089 -0.40641,-0.496712 -0.73378,-0.496712 h -0.89183 c -1.07244,0 -1.2192,1.016001 -1.68204,2.427117 -0.0339,0.1016 -0.0452,0.21449 -0.0452,0.31609 0,0.49671 0.38382,0.85795 0.86925,0.85795 h 1.47884 l -0.19191,0.59831 h -1.63689 c -0.1016,0.29352 -0.24835,0.73378 -0.33867,1.02729 h 1.80623 c 0.49671,0 1.00471,-0.38382 1.16275,-0.88053 0,0 1.18534,-3.58987 1.42241,-4.346227 z m -2.46098,2.585157 c 0,0 0.42898,-1.309511 0.508,-1.546578 h 1.6256 l -0.508,1.546578 z"
         style="font-size:11.2889px;font-family:HiFi;-inkscape-font-specification:'HiFi, Normal';text-align:center;text-anchor:middle;stroke-width:16.4852;stroke-linecap:round"
         id="path1027" />
      <path
         d="m 129.52821,98.307934 c -0.12418,-0.316089 -0.41769,-0.508001 -0.74507,-0.508001 h -1.69333 c -0.49671,0 -1.00471,0.395112 -1.16276,0.880535 l -0.508,1.546582 c -0.0452,0.11289 -0.0564,0.22577 -0.0564,0.32738 0,0.49671 0.38382,0.84666 0.86924,0.84666 h 1.6256 c 0.49671,0 0.99343,-0.39511 1.16276,-0.89182 l 0.55316,-1.670758 c 0.0113,-0.05644 0.0226,-0.124178 0.0226,-0.180622 0,-0.124178 -0.0226,-0.237067 -0.0677,-0.349956 z m -1.53529,2.133606 h -1.59174 c 0,0 0.44027,-1.365961 0.53058,-1.603028 h 1.59174 z"
         style="font-size:11.2889px;font-family:HiFi;-inkscape-font-specification:'HiFi, Normal';text-align:center;text-anchor:middle;stroke-width:16.4852;stroke-linecap:round"
         id="path1029" />
      <path
         d="m 133.5809,100.39638 c 0.0339,-0.16933 0.12418,-0.34996 0.51929,-1.546579 0.0226,-0.06773 0.0226,-0.146756 0.0226,-0.214489 0,-0.496712 -0.37253,-0.82409 -0.80151,-0.82409 h -0.63218 c -0.33867,0 -0.66604,0.169334 -0.89182,0.428978 l 0.13547,-0.428978 h -1.06116 l -1.16276,3.589868 h 1.04987 l 0.83538,-2.551289 h 1.44498 c 0,0 -0.45156,1.365959 -0.45156,1.377249 -0.0339,0.11289 -0.0564,0.21449 -0.0564,0.32738 0,0.49671 0.39511,0.84666 0.86924,0.84666 h 1.46756 l 0.32738,-1.00471 z"
         style="font-size:11.2889px;font-family:HiFi;-inkscape-font-specification:'HiFi, Normal';text-align:center;text-anchor:middle;stroke-width:16.4852;stroke-linecap:round"
         id="path1031" />
    </g>
  </g>
</svg>
